<?xml version="1.0" encoding="UTF-8" standalone="no"?>
<!-- Created with Inkscape (http://www.inkscape.org/) -->

<svg
   xmlns:dc="http://purl.org/dc/elements/1.1/"
   xmlns:cc="http://creativecommons.org/ns#"
   xmlns:rdf="http://www.w3.org/1999/02/22-rdf-syntax-ns#"
   xmlns:svg="http://www.w3.org/2000/svg"
   xmlns="http://www.w3.org/2000/svg"
   xmlns:sodipodi="http://sodipodi.sourceforge.net/DTD/sodipodi-0.dtd"
   xmlns:inkscape="http://www.inkscape.org/namespaces/inkscape"
   width="300mm"
   height="300mm"
   viewBox="0 0 300 300"
   version="1.1"
   id="svg8"
   inkscape:version="0.92.2 (5c3e80d, 2017-08-06)"
   sodipodi:docname="drawing.svg">
  <defs
     id="defs2" />
  <sodipodi:namedview
     id="base"
     pagecolor="#ffffff"
     bordercolor="#666666"
     borderopacity="1.0"
     inkscape:pageopacity="0.0"
     inkscape:pageshadow="2"
     inkscape:zoom="0.5"
     inkscape:cx="160.19037"
     inkscape:cy="685.92929"
     inkscape:document-units="mm"
     inkscape:current-layer="layer1"
     showgrid="false"
     inkscape:window-width="1920"
     inkscape:window-height="1001"
     inkscape:window-x="-9"
     inkscape:window-y="-9"
     inkscape:window-maximized="1" />
  <metadata
     id="metadata5">
    <rdf:RDF>
      <cc:Work
         rdf:about="">
        <dc:format>image/svg+xml</dc:format>
        <dc:type
           rdf:resource="http://purl.org/dc/dcmitype/StillImage" />
        <dc:title />
      </cc:Work>
    </rdf:RDF>
  </metadata>
  <g
     inkscape:label="Layer 1"
     inkscape:groupmode="layer"
     id="layer1"
     transform="translate(0,3)">
    <path
       style="fill:#ffae00;stroke:none;stroke-width:0.01508125;fill-opacity:1"
       d="m 0.37796907,148.83333 v 150.8125 H 151.19047 302.00297 V 148.83333 -1.9791697 H 151.19047 0.37796907 Z M 108.45019,29.977995 c 7.32949,5.474508 12.065,12.125344 13.49773,18.911878 0.43738,2.020916 0.46751,5.474508 0.0752,7.269172 -1.08585,4.976822 -4.20768,9.00353 -8.61142,11.160144 -2.56381,1.25172 -3.67981,1.508106 -6.86196,1.508106 -3.18215,0 -4.28309,-0.2413 -6.861963,-1.508106 -6.665928,-3.25755 -10.074291,-10.466416 -8.596328,-18.157844 0.7239,-3.755236 2.744787,-7.88747 5.65546,-11.552228 1.191427,-1.493058 4.041811,-4.433878 5.655481,-5.821372 1.35731,-1.161242 3.98145,-3.151986 4.14735,-3.151986 0.0605,0 0.91995,0.60325 1.90022,1.342236 z m 44.58021,-0.0304 c 7.05799,5.3086 11.71812,11.627658 13.31672,18.067366 2.27726,9.21462 -2.35266,17.78077 -11.02437,20.374764 -1.64388,0.4826 -4.81093,0.663556 -6.66593,0.36176 -3.27264,-0.527858 -6.04759,-1.945486 -8.49075,-4.373572 -4.64501,-4.569614 -6.00234,-11.175192 -3.72508,-18.007022 1.52323,-4.599786 4.79584,-9.274964 9.48613,-13.603278 1.47795,-1.357322 4.99187,-4.132272 5.23317,-4.132272 0.0605,0 0.90491,0.588164 1.87011,1.312064 z m 44.05232,-0.422256 c 5.35382,3.875886 9.9687,9.139228 12.26105,13.965228 1.40255,2.955944 2.0058,5.42925 2.12645,8.671714 0.0605,2.00583 0.0304,2.563822 -0.2565,3.906058 -0.67865,3.302808 -1.96055,5.715808 -4.29815,8.098636 -2.15661,2.186786 -4.0267,3.332942 -6.96752,4.237836 -1.23668,0.37696 -1.50816,0.40717 -4.19259,0.40717 -2.68446,0 -2.95594,-0.0304 -4.19262,-0.40717 -2.74477,-0.84455 -4.64499,-1.960572 -6.65082,-3.875886 -2.14154,-2.066136 -3.58934,-4.494222 -4.40371,-7.404908 -0.52787,-1.945486 -0.66359,-5.142692 -0.30172,-7.389822 1.02554,-6.228542 5.24829,-12.758728 11.85386,-18.323714 1.22159,-1.025506 3.55921,-2.77495 3.72508,-2.77495 0.0453,0 0.63341,0.407208 1.297,0.889808 z m -85.1035,43.449086 c 0.76915,0.437342 1.46289,1.357322 1.65892,2.201872 0.0904,0.34694 0.15089,11.401406 0.15089,26.331833 v 25.7588 h 15.08125 15.08125 v -25.90962 c 0,-18.278457 0.0453,-26.075449 0.16606,-26.497743 0.10561,-0.392122 0.42226,-0.859636 0.88977,-1.312064 1.04063,-0.995372 1.4478,-1.055678 6.63575,-0.995372 l 4.29818,0.04522 0.69374,0.407208 c 0.37696,0.2261 0.88977,0.693728 1.13107,1.040592 l 0.43738,0.633422 0.0752,26.256447 0.0752,26.25644 15.12647,0.0452 15.11141,0.0304 v -26.04532 c 0,-25.065063 0.0158,-26.090569 0.28652,-26.663647 0.15089,-0.33174 0.51275,-0.814416 0.78421,-1.08585 0.93504,-0.889808 1.35733,-0.950114 6.09284,-0.950114 4.7355,0 5.15779,0.06042 6.09281,0.950114 0.27132,0.27132 0.63343,0.754034 0.78424,1.08585 0.27132,0.573078 0.28652,1.598584 0.28652,26.648567 v 26.04531 l 15.72977,0.0604 c 17.10212,0.0452 15.89562,-0.0152 18.65548,0.87472 4.1021,1.34224 7.49539,4.3434 9.01859,8.00816 0.73899,1.79467 0.93507,3.07656 0.93507,6.2738 v 2.85034 l -1.38751,0.0904 c -5.18795,0.31654 -9.44083,3.51394 -12.68332,9.48613 -0.99535,1.80975 -2.27728,4.93157 -3.87589,9.32017 -2.47331,6.86201 -3.67981,9.60678 -5.24826,11.98962 -1.53827,2.32251 -3.6949,4.01161 -5.98725,4.69026 -1.1311,0.33174 -3.99652,0.37696 -5.20302,0.0752 -2.05105,-0.49769 -3.99654,-1.79466 -5.45943,-3.66475 -1.90022,-2.38284 -3.24246,-5.23322 -5.77611,-12.18565 -1.96058,-5.41416 -2.6543,-7.11835 -3.81558,-9.45596 -1.2819,-2.5487 -2.59396,-4.43388 -4.16241,-6.01741 -2.03596,-2.03597 -3.8608,-3.12182 -6.50001,-3.87589 -1.35733,-0.37696 -4.90143,-0.52782 -6.50001,-0.2565 -4.07197,0.64851 -7.51048,3.03134 -10.19496,7.04296 -1.71926,2.56382 -2.94082,5.24829 -5.24824,11.61256 -2.1717,5.91185 -2.45827,6.63575 -3.69493,9.1694 -1.2819,2.59396 -2.6543,4.52436 -4.05685,5.68564 -3.51394,2.94082 -8.95828,2.94082 -12.51742,0.0304 -1.76453,-1.4478 -3.6195,-4.32831 -5.21813,-8.11368 -0.34694,-0.81439 -1.40255,-3.6195 -2.35269,-6.22858 -1.91531,-5.21808 -2.7297,-7.22391 -3.84571,-9.42578 -2.94082,-5.71577 -6.87705,-8.98841 -11.80863,-9.77265 -1.46287,-0.2413 -5.12759,-0.12084 -6.34918,0.21128 -2.62414,0.70881 -4.46405,1.77958 -6.48494,3.78537 -3.09168,3.03133 -4.73551,6.19841 -8.08355,15.41306 -2.413001,6.68097 -3.574281,9.24478 -5.263381,11.62762 -2.382821,3.39329 -5.504632,4.94665 -9.305123,4.64504 -4.554538,-0.37696 -7.540609,-3.15199 -10.345738,-9.59169 -0.452421,-1.0406 -1.643832,-4.13228 -2.6543,-6.89214 -2.020871,-5.53481 -2.51856,-6.74131 -3.74015,-9.16939 -3.212282,-6.37937 -7.60095,-9.80279 -12.984932,-10.1346 l -1.417669,-0.0904 0.07521,-3.33294 c 0.04528,-2.85038 0.105608,-3.49885 0.392113,-4.43392 1.281898,-4.31323 4.87122,-7.84225 9.516276,-9.35036 2.744772,-0.90485 1.56845,-0.84455 18.595174,-0.8898 l 15.639248,-0.0604 v -25.8191 c 0,-16.830699 0.06048,-26.015147 0.150892,-26.362049 0.19608,-0.678642 0.70881,-1.4478 1.22159,-1.824798 0.90486,-0.67868 1.32715,-0.7239 6.09281,-0.67868 4.5093,0.0304 4.52439,0.0304 5.20302,0.407208 z M 57.611321,150.43173 c 3.106737,0.76912 5.47447,3.04638 7.661259,7.40487 0.980289,1.94548 1.553361,3.36312 3.574248,8.86778 2.60908,7.11835 3.604443,9.32023 5.459413,12.15547 1.16128,1.77959 3.423467,4.05688 4.94665,4.99192 4.17753,2.57887 9.60678,2.92576 13.9954,0.85964 4.252928,-1.97567 7.344579,-5.94203 10.134599,-12.93973 0.33174,-0.85964 1.28193,-3.40838 2.11141,-5.65546 2.97098,-8.14389 4.3434,-10.82836 6.77147,-13.21119 2.20185,-2.1717 5.00696,-3.10673 8.08355,-2.7146 4.0116,0.51273 6.71115,2.82017 9.19955,7.91764 0.99536,2.05105 1.38749,3.04643 3.19724,7.99306 2.51856,6.9223 3.84571,9.8933 5.5499,12.51742 2.50347,3.87589 5.7912,6.28889 9.60673,7.0731 4.52441,0.93507 8.9281,-0.0304 12.3063,-2.69952 2.15663,-1.70419 3.87589,-3.99654 5.61026,-7.45012 1.11598,-2.24713 1.90022,-4.17753 3.92109,-9.72743 1.82484,-5.02203 2.74479,-7.20883 3.8608,-9.18448 2.56383,-4.52436 5.47452,-6.48493 9.63693,-6.48493 2.8956,0.0152 4.9165,0.81438 6.87705,2.75986 2.48843,2.44317 3.81558,5.09747 7.07313,14.02556 2.45822,6.7564 3.54407,9.13924 5.42925,11.95944 2.72968,4.08701 6.04757,6.30398 10.48146,6.98261 5.48956,0.85964 10.73785,-1.34224 14.20652,-5.94201 2.08123,-2.75988 3.51394,-5.7912 6.19842,-13.15085 2.02087,-5.53481 2.60903,-6.96752 3.60441,-8.94318 2.53365,-5.05222 5.33876,-7.35965 9.36543,-7.69143 l 0.78426,-0.0604 -0.0304,40.50822 -0.0453,40.50822 -0.34694,1.10094 c -1.67402,5.41416 -6.36428,9.15431 -12.71347,10.16478 -1.88518,0.28652 -163.978435,0.28652 -165.863615,0 -5.47447,-0.87473 -9.832959,-3.83067 -11.86892,-8.09864 -1.312061,-2.72973 -1.191411,1.9304 -1.236678,-43.6753 l -0.0304,-40.50822 0.784241,0.0604 c 0.437348,0.0452 1.2065,0.16606 1.704189,0.28652 z"
       id="path827"
       inkscape:connector-curvature="0" />
    <path
       style="opacity:1;fill:#ff4000;fill-opacity:1;fill-rule:evenodd;stroke:#a70000;stroke-width:0.1;stroke-miterlimit:4;stroke-dasharray:none;stroke-dashoffset:0;stroke-opacity:1"
       id="path826"
       sodipodi:type="arc"
       sodipodi:cx="106.91743"
       sodipodi:cy="50.465042"
       sodipodi:rx="10.001765"
       sodipodi:ry="11.424694"
       sodipodi:start="5.0426925"
       sodipodi:end="4.7522523"
       sodipodi:open="true"
       d="m 110.1613,39.657922 a 10.001765,11.424694 0 0 1 6.42764,13.718713 10.001765,11.424694 0 0 1 -11.51212,8.317978 10.001765,11.424694 0 0 1 -8.097962,-12.511837 10.001765,11.424694 0 0 1 10.337172,-10.133352" />
    <path
       style="opacity:1;fill:#aad400;fill-opacity:1;fill-rule:evenodd;stroke:#a70000;stroke-width:0.1;stroke-miterlimit:4;stroke-dasharray:none;stroke-dashoffset:0;stroke-opacity:1"
       id="path826-2"
       sodipodi:type="arc"
       sodipodi:cx="151.94579"
       sodipodi:cy="51.314762"
       sodipodi:rx="10.001765"
       sodipodi:ry="11.424694"
       sodipodi:start="5.0426925"
       sodipodi:end="4.7522523"
       sodipodi:open="true"
       d="m 155.18966,40.507642 a 10.001765,11.424694 0 0 1 6.42764,13.718713 10.001765,11.424694 0 0 1 -11.51212,8.317978 10.001765,11.424694 0 0 1 -8.09796,-12.511837 10.001765,11.424694 0 0 1 10.33716,-10.133352" />
    <path
       style="opacity:1;fill:#0044aa;fill-opacity:1;fill-rule:evenodd;stroke:#a70000;stroke-width:0.1;stroke-miterlimit:4;stroke-dasharray:none;stroke-dashoffset:0;stroke-opacity:1"
       id="path826-5"
       sodipodi:type="arc"
       sodipodi:cx="196.92496"
       sodipodi:cy="50.558807"
       sodipodi:rx="10.001765"
       sodipodi:ry="11.424694"
       sodipodi:start="5.0426925"
       sodipodi:end="4.7522523"
       sodipodi:open="true"
       d="m 200.16883,39.751687 a 10.001765,11.424694 0 0 1 6.42764,13.718714 10.001765,11.424694 0 0 1 -11.51212,8.317977 10.001765,11.424694 0 0 1 -8.09796,-12.511837 10.001765,11.424694 0 0 1 10.33717,-10.133351" />
    <path
       style="opacity:1;fill:#ff0000;fill-opacity:1;fill-rule:evenodd;stroke:#a70000;stroke-width:0.75590551;stroke-miterlimit:4;stroke-dasharray:none;stroke-dashoffset:0;stroke-opacity:1"
       d="m 252.4593,925.35288 c -11.74623,-2.76738 -22.09235,-8.81538 -29.94029,-17.50212 -13.39012,-14.82126 -12.4742,-2.72828 -13.10972,-173.088 l -0.58108,-155.76621 6.50936,1.30187 c 17.4397,3.48794 27.23131,17.04977 43.93492,60.85189 17.2722,45.29314 25.65776,58.08799 44.53784,67.95672 14.55315,7.60702 35.80693,7.60702 50.36008,0 18.38667,-9.61082 27.62462,-23.30407 42.98333,-63.71343 5.61586,-14.77554 12.43889,-31.36462 15.16231,-36.86462 12.7349,-25.71855 32.92084,-35.04659 53.88228,-24.89933 13.86854,6.71365 19.7628,16.17343 34.73328,55.74401 16.87806,44.61278 26.11838,59.19791 43.49686,68.65646 21.32098,11.60433 46.05638,8.75709 63.9887,-7.3656 11.9229,-10.71971 19.16812,-23.8639 32.68492,-59.29659 12.61116,-33.05864 18.49886,-44.11824 28.1087,-52.80016 12.93186,-11.68316 33.66914,-11.60504 47.6744,0.1796 7.09492,5.97 18.0276,27.85237 31.14516,62.3388 14.98398,39.39335 27.50118,54.78376 50.08378,61.58013 19.73738,5.94008 37.28752,1.67917 53.26306,-12.93149 12.27216,-11.22366 19.14352,-23.95907 33.73082,-62.5168 13.87114,-36.66474 20.24262,-46.67325 34.30268,-53.88367 14.79112,-7.58532 13.58178,-21.02409 13.56092,150.69464 l -0.018,154.5 -6.0841,10.60928 c -4.01314,6.998 -9.2828,12.63828 -15.48124,16.57004 -19.7638,12.53648 0.63398,11.8399 -340.26012,11.61978 -173.23309,-0.1118 -314.47496,-0.98732 -318.66807,-1.9752 z"
       id="path819"
       inkscape:connector-curvature="0"
       transform="matrix(0.26458333,0,0,0.26458333,0,-3)" />
    <path
       style="opacity:1;fill:#333333;fill-opacity:1;fill-rule:evenodd;stroke:#a70000;stroke-width:0.75590551;stroke-miterlimit:4;stroke-dasharray:none;stroke-dashoffset:0;stroke-opacity:1"
       d="m 313.62427,691.64278 c -12.55846,-5.70174 -20.7285,-18.79006 -35.65177,-57.1138 -14.56806,-37.41154 -20.87343,-48.7033 -33.90245,-60.71302 -7.80433,-7.19378 -23.91147,-14.28698 -32.44268,-14.28698 -3.25823,0 -3.59349,-17.47566 -0.54579,-28.44948 3.3173,-11.94454 13.78045,-23.84362 26.84558,-30.52974 l 11.76497,-6.02078 63.14912,-1 63.14912,-1 0.51837,-100.27036 c 0.4668,-90.29566 0.84623,-100.54189 3.81416,-103 2.28446,-1.89203 8.99845,-2.6996 21.87985,-2.63173 29.51166,0.1555 26.78762,-10.7469 26.78762,107.21206 v 99.69003 h 58 58 v -99.69003 c 0,-117.07583 -2.45768,-106.47815 25.0276,-107.92075 13.40764,-0.70373 17.95238,-0.20716 21.92456,2.39551 l 5.01088,3.28326 0.51848,100.46601 0.51848,100.466 57.429,0.53056 57.42902,0.53054 0.57098,-99.96066 c 0.5304,-92.85214 0.82498,-100.21453 4.14242,-103.53055 5.12478,-5.12257 39.61296,-5.24266 44.69996,-0.15565 3.10216,3.10215 3.4989,12.5537 4.34034,103.39743 l 0.9261,99.98317 63.2311,0.60258 63.23108,0.60258 10.18004,5.37156 c 11.2982,5.96156 21.87816,16.8859 26.07016,26.91874 1.51238,3.61968 2.7498,12.31692 2.7498,19.3272 v 12.74598 l -11.0461,2.472 c -22.47926,5.03064 -37.40708,22.47532 -52.153,60.94608 -19.2136,50.12644 -28.61962,65.52466 -43.4311,71.09936 -14.97184,5.63506 -32.80028,-0.4622 -43.0388,-14.71906 -6.98384,-9.72482 -11.02728,-18.4915 -22.21368,-48.16186 -14.64902,-38.85446 -24.81568,-54.39024 -41.55542,-63.50114 -21.32098,-11.60434 -46.05638,-8.7571 -63.9887,7.3656 -11.93816,10.73344 -19.35974,24.20918 -32.5845,59.1654 -5.51172,14.56882 -12.36334,30.79182 -15.22582,36.05112 -12.50666,22.97888 -31.89908,31.21874 -51.99506,22.09278 -13.76358,-6.25028 -20.58482,-17.88466 -39.67688,-67.67326 -5.16706,-13.47472 -13.07844,-30.01602 -17.58086,-36.75844 -21.30232,-31.9005 -59.6166,-36.9999 -86.55752,-11.5203 -11.92056,11.27396 -18.04612,22.7491 -32.75842,61.36698 -14.8577,38.99956 -21.46326,48.96738 -36.6572,55.3158 -9.78765,4.08954 -18.69037,3.84598 -28.90304,-0.79074 z"
       id="path821"
       inkscape:connector-curvature="0"
       transform="matrix(0.26458333,0,0,0.26458333,0,-3)" />
    <path
       style="opacity:1;fill:#006680;fill-opacity:1;fill-rule:evenodd;stroke:#a70000;stroke-width:0.75590551;stroke-miterlimit:4;stroke-dasharray:none;stroke-dashoffset:0;stroke-opacity:1"
       d="m 391.99037,269.67067 c -16.23427,-2.83993 -34.15833,-16.39833 -41.83164,-31.64294 -15.96622,-31.72021 0.12503,-74.41725 40.91686,-108.5701 7.42553,-6.21701 10.86759,-7.89579 14.09119,-6.87266 2.34605,0.7446 12.07916,9.13662 21.62914,18.64892 13.52842,13.47504 19.11192,20.82909 25.27903,33.29509 7.54229,15.24576 7.91542,16.89566 7.91542,35 0,16.25552 -0.71273,20.39528 -4.93419,28.65954 -11.6808,22.86721 -37.7944,35.903 -63.06581,31.48215 z m 29.92924,-28.69853 c 15.9128,-9.01285 25.01288,-34.13525 19.07333,-52.65533 -11.57194,-36.08237 -53.18559,-40.67028 -70.63781,-7.78783 -3.14914,5.93342 -4.26131,11.65702 -4.30536,22.15684 -0.0518,12.33398 0.72228,15.42118 6.01136,23.97606 11.22036,18.14851 32.36616,24.21773 49.85848,14.31026 z"
       id="path823"
       inkscape:connector-curvature="0"
       transform="matrix(0.26458333,0,0,0.26458333,0,-3)" />
    <path
       style="opacity:1;fill:#ff00ff;fill-opacity:1;fill-rule:evenodd;stroke:#a70000;stroke-width:0.75590551;stroke-miterlimit:4;stroke-dasharray:none;stroke-dashoffset:0;stroke-opacity:1"
       d="m 555.99037,268.8349 c -13.40983,-4.41458 -20.17911,-8.75954 -28.66306,-18.39782 -10.89683,-12.37945 -15.00069,-25.2575 -13.8811,-43.55933 1.12905,-18.45635 6.87801,-32.88956 20.01956,-50.26067 11.23245,-14.84757 33.53912,-35.0881 38.66985,-35.0881 1.70587,0 11.46848,8.325 21.69469,18.5 14.54973,14.47686 20.20371,21.79089 25.99928,33.63283 18.76849,38.34924 9.17874,74.93681 -23.9867,91.51592 -10.68249,5.34009 -29.49605,7.06656 -39.85252,3.65717 z m 37.61962,-25.32615 c 18.95219,-12.98625 24.89636,-38.96422 13.78322,-60.2372 -6.49019,-12.42365 -15.13468,-19.00739 -27.3649,-20.84142 -12.73066,-1.90909 -20.54539,0.56245 -30.34776,9.59796 -29.195,26.91101 -10.1035,79.77227 27.74908,76.83275 5.5757,-0.43299 12.19845,-2.62364 16.18036,-5.35209 z"
       id="path825"
       inkscape:connector-curvature="0"
       transform="matrix(0.26458333,0,0,0.26458333,0,-3)" />
    <path
       style="opacity:1;fill:#ff6600;fill-opacity:1;fill-rule:evenodd;stroke:#a70000;stroke-width:0.75590551;stroke-miterlimit:4;stroke-dasharray:none;stroke-dashoffset:0;stroke-opacity:1"
       d="m 728.23355,269.36715 c -20.20258,-3.27167 -38.29974,-20.09745 -44.47934,-41.35453 -6.5231,-22.4387 0.36112,-47.91271 19.92955,-73.74619 8.97892,-11.85362 32.15723,-32.73745 36.33428,-32.73745 3.58085,0 24.68208,18.60412 33.93277,29.9172 23.4638,28.69489 30.42635,59.5775 19.18212,85.0828 -4.54806,10.31637 -18.93248,24.66268 -29.14256,29.06536 -10.19553,4.39641 -23.34116,5.78344 -35.75682,3.77281 z m 33.07682,-27.06375 c 16.9471,-8.57224 25.76906,-33.66229 19.35888,-55.05754 -5.72086,-19.09453 -27.51913,-32.71014 -44.75087,-27.95223 -22.97842,6.34465 -35.43402,31.71156 -28.04735,57.12084 7.25525,24.95716 31.78652,36.84144 53.43934,25.88893 z"
       id="path830"
       inkscape:connector-curvature="0"
       transform="matrix(0.26458333,0,0,0.26458333,0,-3)" />
  </g>
</svg>
