<?xml version="1.0" encoding="UTF-8" standalone="no"?>
<!-- Created with Inkscape (http://www.inkscape.org/) -->

<svg
   xmlns:dc="http://purl.org/dc/elements/1.1/"
   xmlns:cc="http://creativecommons.org/ns#"
   xmlns:rdf="http://www.w3.org/1999/02/22-rdf-syntax-ns#"
   xmlns:svg="http://www.w3.org/2000/svg"
   xmlns="http://www.w3.org/2000/svg"
   xmlns:sodipodi="http://sodipodi.sourceforge.net/DTD/sodipodi-0.dtd"
   xmlns:inkscape="http://www.inkscape.org/namespaces/inkscape"
   width="300mm"
   height="300mm"
   viewBox="0 0 300 300"
   version="1.1"
   id="svg8"
   inkscape:version="0.92.2 (5c3e80d, 2017-08-06)"
   sodipodi:docname="cake_icon.svg">
  <defs
     id="defs2" />
  <sodipodi:namedview
     id="base"
     pagecolor="#ffffff"
     bordercolor="#666666"
     borderopacity="1.0"
     inkscape:pageopacity="0.0"
     inkscape:pageshadow="2"
     inkscape:zoom="0.5"
     inkscape:cx="-168.80963"
     inkscape:cy="685.92929"
     inkscape:document-units="mm"
     inkscape:current-layer="layer1"
     showgrid="false"
     inkscape:window-width="1920"
     inkscape:window-height="1001"
     inkscape:window-x="-9"
     inkscape:window-y="-9"
     inkscape:window-maximized="1" />
  <metadata
     id="metadata5">
    <rdf:RDF>
      <cc:Work
         rdf:about="">
        <dc:format>image/svg+xml</dc:format>
        <dc:type
           rdf:resource="http://purl.org/dc/dcmitype/StillImage" />
        <dc:title />
      </cc:Work>
    </rdf:RDF>
  </metadata>
  <g
     inkscape:label="Layer 1"
     inkscape:groupmode="layer"
     id="layer1"
     transform="translate(0,3)">
    <path
       style="opacity:1;fill:#ffcc00;fill-opacity:1;fill-rule:evenodd;stroke:#a70000;stroke-width:0.14762855;stroke-miterlimit:4;stroke-dasharray:none;stroke-dashoffset:0;stroke-opacity:1"
       id="path835"
       sodipodi:type="arc"
       sodipodi:cx="150.51112"
       sodipodi:cy="148.00436"
       sodipodi:rx="149.98195"
       sodipodi:ry="150.58313"
       sodipodi:start="5.0426925"
       sodipodi:end="4.7522523"
       sodipodi:open="true"
       d="M 199.15479,5.5611639 A 149.98195,150.58313 0 0 1 295.54072,186.3806 149.98195,150.58313 0 0 1 122.91017,296.01567 149.98195,150.58313 0 0 1 1.4768304,131.10346 149.98195,150.58313 0 0 1 156.48832,-2.4591371" />
    <g
       id="g833"
       transform="translate(3.3333333e-6,5.2916673)">
      <path
         d="m 110.1613,39.657922 a 10.001765,11.424694 0 0 1 6.42764,13.718713 10.001765,11.424694 0 0 1 -11.51212,8.317978 10.001765,11.424694 0 0 1 -8.097962,-12.511837 10.001765,11.424694 0 0 1 10.337172,-10.133352"
         sodipodi:open="true"
         sodipodi:end="4.7522523"
         sodipodi:start="5.0426925"
         sodipodi:ry="11.424694"
         sodipodi:rx="10.001765"
         sodipodi:cy="50.465042"
         sodipodi:cx="106.91743"
         sodipodi:type="arc"
         id="path826"
         style="opacity:1;fill:#ff4000;fill-opacity:1;fill-rule:evenodd;stroke:#a70000;stroke-width:0.1;stroke-miterlimit:4;stroke-dasharray:none;stroke-dashoffset:0;stroke-opacity:1" />
      <path
         d="m 155.18966,40.507642 a 10.001765,11.424694 0 0 1 6.42764,13.718713 10.001765,11.424694 0 0 1 -11.51212,8.317978 10.001765,11.424694 0 0 1 -8.09796,-12.511837 10.001765,11.424694 0 0 1 10.33716,-10.133352"
         sodipodi:open="true"
         sodipodi:end="4.7522523"
         sodipodi:start="5.0426925"
         sodipodi:ry="11.424694"
         sodipodi:rx="10.001765"
         sodipodi:cy="51.314762"
         sodipodi:cx="151.94579"
         sodipodi:type="arc"
         id="path826-2"
         style="opacity:1;fill:#aad400;fill-opacity:1;fill-rule:evenodd;stroke:#a70000;stroke-width:0.1;stroke-miterlimit:4;stroke-dasharray:none;stroke-dashoffset:0;stroke-opacity:1" />
      <path
         d="m 200.16883,39.751687 a 10.001765,11.424694 0 0 1 6.42764,13.718714 10.001765,11.424694 0 0 1 -11.51212,8.317977 10.001765,11.424694 0 0 1 -8.09796,-12.511837 10.001765,11.424694 0 0 1 10.33717,-10.133351"
         sodipodi:open="true"
         sodipodi:end="4.7522523"
         sodipodi:start="5.0426925"
         sodipodi:ry="11.424694"
         sodipodi:rx="10.001765"
         sodipodi:cy="50.558807"
         sodipodi:cx="196.92496"
         sodipodi:type="arc"
         id="path826-5"
         style="opacity:1;fill:#0044aa;fill-opacity:1;fill-rule:evenodd;stroke:#a70000;stroke-width:0.1;stroke-miterlimit:4;stroke-dasharray:none;stroke-dashoffset:0;stroke-opacity:1" />
      <path
         transform="matrix(0.26458333,0,0,0.26458333,0,-3)"
         inkscape:connector-curvature="0"
         id="path819"
         d="m 252.4593,925.35288 c -11.74623,-2.76738 -22.09235,-8.81538 -29.94029,-17.50212 -13.39012,-14.82126 -12.4742,-2.72828 -13.10972,-173.088 l -0.58108,-155.76621 6.50936,1.30187 c 17.4397,3.48794 27.23131,17.04977 43.93492,60.85189 17.2722,45.29314 25.65776,58.08799 44.53784,67.95672 14.55315,7.60702 35.80693,7.60702 50.36008,0 18.38667,-9.61082 27.62462,-23.30407 42.98333,-63.71343 5.61586,-14.77554 12.43889,-31.36462 15.16231,-36.86462 12.7349,-25.71855 32.92084,-35.04659 53.88228,-24.89933 13.86854,6.71365 19.7628,16.17343 34.73328,55.74401 16.87806,44.61278 26.11838,59.19791 43.49686,68.65646 21.32098,11.60433 46.05638,8.75709 63.9887,-7.3656 11.9229,-10.71971 19.16812,-23.8639 32.68492,-59.29659 12.61116,-33.05864 18.49886,-44.11824 28.1087,-52.80016 12.93186,-11.68316 33.66914,-11.60504 47.6744,0.1796 7.09492,5.97 18.0276,27.85237 31.14516,62.3388 14.98398,39.39335 27.50118,54.78376 50.08378,61.58013 19.73738,5.94008 37.28752,1.67917 53.26306,-12.93149 12.27216,-11.22366 19.14352,-23.95907 33.73082,-62.5168 13.87114,-36.66474 20.24262,-46.67325 34.30268,-53.88367 14.79112,-7.58532 13.58178,-21.02409 13.56092,150.69464 l -0.018,154.5 -6.0841,10.60928 c -4.01314,6.998 -9.2828,12.63828 -15.48124,16.57004 -19.7638,12.53648 0.63398,11.8399 -340.26012,11.61978 -173.23309,-0.1118 -314.47496,-0.98732 -318.66807,-1.9752 z"
         style="opacity:1;fill:#ff0000;fill-opacity:1;fill-rule:evenodd;stroke:#a70000;stroke-width:0.75590551;stroke-miterlimit:4;stroke-dasharray:none;stroke-dashoffset:0;stroke-opacity:1" />
      <path
         transform="matrix(0.26458333,0,0,0.26458333,0,-3)"
         inkscape:connector-curvature="0"
         id="path821"
         d="m 313.62427,691.64278 c -12.55846,-5.70174 -20.7285,-18.79006 -35.65177,-57.1138 -14.56806,-37.41154 -20.87343,-48.7033 -33.90245,-60.71302 -7.80433,-7.19378 -23.91147,-14.28698 -32.44268,-14.28698 -3.25823,0 -3.59349,-17.47566 -0.54579,-28.44948 3.3173,-11.94454 13.78045,-23.84362 26.84558,-30.52974 l 11.76497,-6.02078 63.14912,-1 63.14912,-1 0.51837,-100.27036 c 0.4668,-90.29566 0.84623,-100.54189 3.81416,-103 2.28446,-1.89203 8.99845,-2.6996 21.87985,-2.63173 29.51166,0.1555 26.78762,-10.7469 26.78762,107.21206 v 99.69003 h 58 58 v -99.69003 c 0,-117.07583 -2.45768,-106.47815 25.0276,-107.92075 13.40764,-0.70373 17.95238,-0.20716 21.92456,2.39551 l 5.01088,3.28326 0.51848,100.46601 0.51848,100.466 57.429,0.53056 57.42902,0.53054 0.57098,-99.96066 c 0.5304,-92.85214 0.82498,-100.21453 4.14242,-103.53055 5.12478,-5.12257 39.61296,-5.24266 44.69996,-0.15565 3.10216,3.10215 3.4989,12.5537 4.34034,103.39743 l 0.9261,99.98317 63.2311,0.60258 63.23108,0.60258 10.18004,5.37156 c 11.2982,5.96156 21.87816,16.8859 26.07016,26.91874 1.51238,3.61968 2.7498,12.31692 2.7498,19.3272 v 12.74598 l -11.0461,2.472 c -22.47926,5.03064 -37.40708,22.47532 -52.153,60.94608 -19.2136,50.12644 -28.61962,65.52466 -43.4311,71.09936 -14.97184,5.63506 -32.80028,-0.4622 -43.0388,-14.71906 -6.98384,-9.72482 -11.02728,-18.4915 -22.21368,-48.16186 -14.64902,-38.85446 -24.81568,-54.39024 -41.55542,-63.50114 -21.32098,-11.60434 -46.05638,-8.7571 -63.9887,7.3656 -11.93816,10.73344 -19.35974,24.20918 -32.5845,59.1654 -5.51172,14.56882 -12.36334,30.79182 -15.22582,36.05112 -12.50666,22.97888 -31.89908,31.21874 -51.99506,22.09278 -13.76358,-6.25028 -20.58482,-17.88466 -39.67688,-67.67326 -5.16706,-13.47472 -13.07844,-30.01602 -17.58086,-36.75844 -21.30232,-31.9005 -59.6166,-36.9999 -86.55752,-11.5203 -11.92056,11.27396 -18.04612,22.7491 -32.75842,61.36698 -14.8577,38.99956 -21.46326,48.96738 -36.6572,55.3158 -9.78765,4.08954 -18.69037,3.84598 -28.90304,-0.79074 z"
         style="opacity:1;fill:#333333;fill-opacity:1;fill-rule:evenodd;stroke:#a70000;stroke-width:0.75590551;stroke-miterlimit:4;stroke-dasharray:none;stroke-dashoffset:0;stroke-opacity:1" />
      <path
         transform="matrix(0.26458333,0,0,0.26458333,0,-3)"
         inkscape:connector-curvature="0"
         id="path823"
         d="m 391.99037,269.67067 c -16.23427,-2.83993 -34.15833,-16.39833 -41.83164,-31.64294 -15.96622,-31.72021 0.12503,-74.41725 40.91686,-108.5701 7.42553,-6.21701 10.86759,-7.89579 14.09119,-6.87266 2.34605,0.7446 12.07916,9.13662 21.62914,18.64892 13.52842,13.47504 19.11192,20.82909 25.27903,33.29509 7.54229,15.24576 7.91542,16.89566 7.91542,35 0,16.25552 -0.71273,20.39528 -4.93419,28.65954 -11.6808,22.86721 -37.7944,35.903 -63.06581,31.48215 z m 29.92924,-28.69853 c 15.9128,-9.01285 25.01288,-34.13525 19.07333,-52.65533 -11.57194,-36.08237 -53.18559,-40.67028 -70.63781,-7.78783 -3.14914,5.93342 -4.26131,11.65702 -4.30536,22.15684 -0.0518,12.33398 0.72228,15.42118 6.01136,23.97606 11.22036,18.14851 32.36616,24.21773 49.85848,14.31026 z"
         style="opacity:1;fill:#006680;fill-opacity:1;fill-rule:evenodd;stroke:#a70000;stroke-width:0.75590551;stroke-miterlimit:4;stroke-dasharray:none;stroke-dashoffset:0;stroke-opacity:1" />
      <path
         transform="matrix(0.26458333,0,0,0.26458333,0,-3)"
         inkscape:connector-curvature="0"
         id="path825"
         d="m 555.99037,268.8349 c -13.40983,-4.41458 -20.17911,-8.75954 -28.66306,-18.39782 -10.89683,-12.37945 -15.00069,-25.2575 -13.8811,-43.55933 1.12905,-18.45635 6.87801,-32.88956 20.01956,-50.26067 11.23245,-14.84757 33.53912,-35.0881 38.66985,-35.0881 1.70587,0 11.46848,8.325 21.69469,18.5 14.54973,14.47686 20.20371,21.79089 25.99928,33.63283 18.76849,38.34924 9.17874,74.93681 -23.9867,91.51592 -10.68249,5.34009 -29.49605,7.06656 -39.85252,3.65717 z m 37.61962,-25.32615 c 18.95219,-12.98625 24.89636,-38.96422 13.78322,-60.2372 -6.49019,-12.42365 -15.13468,-19.00739 -27.3649,-20.84142 -12.73066,-1.90909 -20.54539,0.56245 -30.34776,9.59796 -29.195,26.91101 -10.1035,79.77227 27.74908,76.83275 5.5757,-0.43299 12.19845,-2.62364 16.18036,-5.35209 z"
         style="opacity:1;fill:#ff00ff;fill-opacity:1;fill-rule:evenodd;stroke:#a70000;stroke-width:0.75590551;stroke-miterlimit:4;stroke-dasharray:none;stroke-dashoffset:0;stroke-opacity:1" />
      <path
         transform="matrix(0.26458333,0,0,0.26458333,0,-3)"
         inkscape:connector-curvature="0"
         id="path830"
         d="m 728.23355,269.36715 c -20.20258,-3.27167 -38.29974,-20.09745 -44.47934,-41.35453 -6.5231,-22.4387 0.36112,-47.91271 19.92955,-73.74619 8.97892,-11.85362 32.15723,-32.73745 36.33428,-32.73745 3.58085,0 24.68208,18.60412 33.93277,29.9172 23.4638,28.69489 30.42635,59.5775 19.18212,85.0828 -4.54806,10.31637 -18.93248,24.66268 -29.14256,29.06536 -10.19553,4.39641 -23.34116,5.78344 -35.75682,3.77281 z m 33.07682,-27.06375 c 16.9471,-8.57224 25.76906,-33.66229 19.35888,-55.05754 -5.72086,-19.09453 -27.51913,-32.71014 -44.75087,-27.95223 -22.97842,6.34465 -35.43402,31.71156 -28.04735,57.12084 7.25525,24.95716 31.78652,36.84144 53.43934,25.88893 z"
         style="opacity:1;fill:#ff6600;fill-opacity:1;fill-rule:evenodd;stroke:#a70000;stroke-width:0.75590551;stroke-miterlimit:4;stroke-dasharray:none;stroke-dashoffset:0;stroke-opacity:1" />
    </g>
  </g>
</svg>
