<?xml version="1.0" encoding="UTF-8" standalone="no"?>
<svg
   xmlns:dc="http://purl.org/dc/elements/1.1/"
   xmlns:cc="http://creativecommons.org/ns#"
   xmlns:rdf="http://www.w3.org/1999/02/22-rdf-syntax-ns#"
   xmlns:svg="http://www.w3.org/2000/svg"
   xmlns="http://www.w3.org/2000/svg"
   xmlns:sodipodi="http://sodipodi.sourceforge.net/DTD/sodipodi-0.dtd"
   xmlns:inkscape="http://www.inkscape.org/namespaces/inkscape"
   version="1.0"
   width="362.000000pt"
   height="375.000000pt"
   viewBox="0 0 362.000000 375.000000"
   preserveAspectRatio="xMidYMid meet"
   id="svg20"
   sodipodi:docname="Untitled.svg"
   inkscape:version="0.92.2 (5c3e80d, 2017-08-06)">
  <defs
     id="defs24" />
  <sodipodi:namedview
     pagecolor="#ffffff"
     bordercolor="#666666"
     borderopacity="1"
     objecttolerance="10"
     gridtolerance="10"
     guidetolerance="10"
     inkscape:pageopacity="0"
     inkscape:pageshadow="2"
     inkscape:window-width="1920"
     inkscape:window-height="1001"
     id="namedview22"
     showgrid="false"
     inkscape:zoom="1.3350176"
     inkscape:cx="154.91534"
     inkscape:cy="229.6019"
     inkscape:window-x="-9"
     inkscape:window-y="-9"
     inkscape:window-maximized="1"
     inkscape:current-layer="svg20" />
  <metadata
     id="metadata2">
Created by potrace 1.15, written by Peter Selinger 2001-2017
<rdf:RDF>
  <cc:Work
     rdf:about="">
    <dc:format>image/svg+xml</dc:format>
    <dc:type
       rdf:resource="http://purl.org/dc/dcmitype/StillImage" />
  </cc:Work>
</rdf:RDF>
</metadata>
  <g
     transform="translate(0.000000,375.000000) scale(0.100000,-0.100000)"
     fill="#000000"
     stroke="none"
     id="g18">
    <path
       d="M1859 3510 c-164 -142 -310 -225 -511 -291 -91 -30 -131 -39 -158 -34 -50 8 -165 -19 -228 -56 -51 -29 -52 -31 -46 -64 7 -40 2 -43 -120 -85 -152 -52 -187 -49 -212 21 l-12 34 -23 -50 c-43 -94 -36 -192 18 -256 23 -27 71 -59 90 -59 4 0 6 27 5 60 -4 58 7 78 25 46 12 -21 64 -46 96 -46 32 0 33 4 7 30 -22 22 -27 69 -8 88 19 19 59 14 84 -9 26 -24 91 -39 120 -28 14 6 15 8 3 8 -23 1 -51 35 -43 55 8 22 20 20 78 -9 49 -25 106 -33 106 -16 0 5 -9 13 -21 16 -24 8 -22 38 4 43 10 2 48 -15 86 -37 37 -23 77 -41 89 -41 12 0 22 -4 22 -8 0 -11 -89 -42 -122 -42 -14 0 -34 -3 -42 -6 -15 -6 -15 -8 1 -20 10 -7 27 -14 38 -14 18 0 18 -1 3 -16 -9 -9 -48 -21 -87 -27 -39 -6 -71 -14 -71 -18 0 -3 17 -13 37 -20 l38 -15 -55 -12 c-30 -6 -77 -14 -105 -18 l-50 -6 24 -19 c13 -10 30 -19 38 -19 11 0 8 -9 -11 -31 -14 -17 -26 -39 -26 -49 0 -16 3 -17 38 -4 49 17 82 17 170 -1 65 -14 89 -14 145 2 25 6 21 31 -5 35 -61 8 -2 143 97 224 88 71 111 95 98 101 -7 2 -13 14 -13 24 0 28 -26 75 -52 93 -12 9 -41 16 -63 17 -55 1 -17 17 44 18 36 1 48 -4 77 -33 19 -19 34 -43 34 -55 0 -27 4 -26 64 4 48 24 123 33 159 19 8 -3 36 -32 63 -65 55 -69 118 -104 209 -114 l60 -6 -55 54 c-81 81 -153 158 -149 161 2 2 38 -3 79 -10 49 -8 102 -27 154 -54 l78 -40 -7 27 c-11 46 -73 140 -118 179 -51 44 -152 94 -207 101 -63 9 -157 -15 -258 -64 l-92 -46 -23 21 c-12 11 -38 22 -57 24 -32 3 -26 7 70 46 194 79 309 151 382 241 45 54 101 156 96 174 -2 8 -33 -13 -79 -53z"
       id="path4" />
    <path
       d="M1575 3499 c-83 -64 -166 -114 -377 -229 l-83 -45 63 -3 c59 -3 69 0 165 50 161 85 264 172 311 266 9 17 15 32 14 31 -2 -1 -43 -32 -93 -70z"
       id="path6" />
    <path
       d="M2210 3338 c-62 -12 -56 -17 45 -39 l60 -13 -110 -7 c-82 -5 -135 -15 -209 -39 -54 -17 -94 -35 -90 -39 5 -4 34 -18 64 -31 171 -75 271 -196 274 -330 1 -45 -6 -69 -34 -125 -19 -39 -37 -74 -38 -78 -6 -13 51 4 81 24 32 23 34 12 7 -41 -24 -46 -47 -63 -167 -124 -87 -43 -163 -98 -163 -117 0 -5 12 -4 28 2 15 6 63 14 107 19 44 5 89 11 100 15 37 13 -25 -32 -105 -76 -85 -46 -200 -121 -200 -130 0 -7 115 17 325 67 299 71 412 157 470 358 26 89 18 232 -18 309 -36 79 -91 146 -160 197 -32 24 -56 45 -53 47 10 10 124 -41 172 -77 64 -48 109 -115 137 -205 19 -59 22 -93 22 -215 0 -157 -13 -217 -74 -353 -70 -156 -140 -228 -354 -362 -43 -27 -74 -51 -68 -53 10 -3 115 27 160 45 11 4 12 -2 7 -31 l-7 -37 30 16 c48 24 96 71 133 128 l33 52 3 -32 c2 -18 -2 -42 -8 -53 -17 -31 -7 -34 39 -11 63 33 108 77 138 139 26 52 28 67 28 170 0 61 3 112 6 112 6 0 55 -104 65 -140 6 -22 9 -19 37 35 59 117 47 275 -30 387 -45 65 -18 65 48 -1 l49 -48 0 49 c0 120 -56 241 -156 342 -56 56 -56 56 -28 57 40 2 93 0 132 -7 17 -3 32 -1 32 4 0 14 -99 110 -145 141 -57 38 -159 79 -240 96 -80 17 -290 18 -375 3z m125 -223 c80 -38 146 -116 175 -204 32 -99 26 -232 -13 -308 -31 -59 -75 -113 -120 -145 -36 -26 -37 -27 16 102 85 207 58 402 -73 524 -70 66 -68 70 15 31z"
       id="path8" />
    <path
       d="M2621 2423 c-2 -18 -91 -101 -140 -129 -103 -57 -334 -122 -602 -169 -206 -37 -301 -76 -450 -186 -176 -130 -249 -281 -241 -497 2 -50 13 -48 43 9 67 133 356 326 552 369 63 15 79 9 54 -18 -51 -56 -72 -173 -42 -236 17 -35 91 -113 100 -104 3 2 0 19 -6 37 -17 49 -6 130 28 203 46 97 124 169 264 243 216 114 348 216 394 305 28 56 58 156 52 173 -4 8 -6 8 -6 0z m-361 -342 c0 -14 -138 -67 -220 -85 -41 -9 -128 -23 -194 -32 -120 -16 -207 -38 -293 -75 -46 -20 -47 -20 -29 0 23 25 136 84 201 104 61 19 124 31 320 57 123 16 173 26 213 39 1 1 2 -3 2 -8z"
       id="path10" />
    <path
       d="M1553 2148 c-215 -22 -373 -102 -465 -236 l-31 -45 64 6 c62 6 63 6 39 -11 -49 -32 -113 -106 -136 -157 -24 -52 -53 -210 -41 -222 4 -3 16 2 27 12 11 10 22 16 25 14 2 -3 -1 -36 -6 -74 -13 -78 -1 -180 28 -240 20 -42 25 -43 43 -10 13 25 13 24 29 -23 24 -69 56 -109 124 -153 68 -44 87 -48 87 -18 0 20 2 19 34 -8 32 -29 98 -64 144 -78 16 -5 22 -2 22 9 0 9 4 16 8 16 14 0 142 -45 211 -74 35 -15 65 -25 68 -23 4 5 -70 56 -139 95 -20 11 -86 41 -146 67 -178 75 -315 185 -375 300 -26 51 -31 74 -35 150 -4 104 14 208 52 291 51 111 263 299 429 380 59 29 73 45 35 42 -13 -2 -55 -6 -95 -10z"
       id="path12" />
    <path
       d="M1559 1657 c-69 -35 -132 -105 -149 -167 -5 -19 -10 -73 -11 -120 l-1 -85 -19 40 c-12 27 -19 63 -19 108 0 50 -3 68 -12 65 -24 -8 -118 -142 -118 -168 1 -38 63 -115 135 -168 71 -52 68 -50 274 -152 171 -84 213 -112 276 -182 113 -125 113 -257 0 -312 l-39 -20 29 -13 c34 -15 89 -9 124 14 l24 15 -7 -48 c-18 -136 -165 -236 -288 -195 -76 25 -94 151 -21 151 24 0 25 -2 20 -40 -6 -48 4 -50 44 -11 21 21 29 39 29 64 0 46 -25 67 -82 67 -141 0 -177 -200 -49 -267 64 -34 194 -33 269 2 92 43 172 154 207 287 38 144 2 254 -125 380 -44 44 -80 81 -80 82 0 0 63 0 140 0 157 -2 161 1 66 55 -61 35 -132 54 -283 76 -62 8 -130 22 -152 30 -44 15 -148 82 -171 110 -14 16 -12 17 20 9 66 -17 420 -3 420 16 0 21 -104 42 -241 49 -125 7 -152 11 -182 30 -85 52 -74 211 20 297 46 43 32 43 -48 1z"
       id="path14" />
    <path
       d="M2190 818 c0 -2 14 -30 30 -62 26 -50 30 -70 30 -135 0 -85 -30 -185 -75 -253 -15 -22 -24 -42 -22 -45 10 -9 78 61 104 106 35 60 33 59 48 38 17 -24 25 -10 32 57 8 76 -26 184 -74 237 -30 34 -73 67 -73 57z"
       id="path16" />
  </g>
  <path
     style="fill:#ffffff;stroke:#000000;stroke-width:1.13583207px;stroke-linecap:butt;stroke-linejoin:miter;stroke-opacity:1"
     d="m 100.4799,70.376926 1.80049,-4.824372 15.60439,-4.221326 c -4.30549,6.755567 -11.08619,7.323119 -17.40488,9.045698 z"
     id="path834"
     inkscape:connector-curvature="0"
     sodipodi:nodetypes="cccc" />
</svg>
