<?xml version="1.0" encoding="UTF-8" standalone="no"?>
<svg
   xmlns:dc="http://purl.org/dc/elements/1.1/"
   xmlns:cc="http://creativecommons.org/ns#"
   xmlns:rdf="http://www.w3.org/1999/02/22-rdf-syntax-ns#"
   xmlns:svg="http://www.w3.org/2000/svg"
   xmlns="http://www.w3.org/2000/svg"
   xmlns:xlink="http://www.w3.org/1999/xlink"
   xmlns:sodipodi="http://sodipodi.sourceforge.net/DTD/sodipodi-0.dtd"
   xmlns:inkscape="http://www.inkscape.org/namespaces/inkscape"
   version="1.0"
   width="362.000000pt"
   height="375.000000pt"
   viewBox="0 0 362.000000 375.000000"
   preserveAspectRatio="xMidYMid meet"
   id="svg20"
   sodipodi:docname="dragon.svg"
   inkscape:version="0.92.2 (5c3e80d, 2017-08-06)">
  <defs
     id="defs24">
    <linearGradient
       inkscape:collect="always"
       id="linearGradient931">
      <stop
         style="stop-color:#917c6f;stop-opacity:1;"
         offset="0"
         id="stop927" />
      <stop
         style="stop-color:#917c6f;stop-opacity:0;"
         offset="1"
         id="stop929" />
    </linearGradient>
    <linearGradient
       inkscape:collect="always"
       id="linearGradient921">
      <stop
         style="stop-color:#241f1c;stop-opacity:1;"
         offset="0"
         id="stop917" />
      <stop
         style="stop-color:#241f1c;stop-opacity:0;"
         offset="1"
         id="stop919" />
    </linearGradient>
    <linearGradient
       inkscape:collect="always"
       id="linearGradient913">
      <stop
         style="stop-color:#165016;stop-opacity:1;"
         offset="0"
         id="stop909" />
      <stop
         style="stop-color:#165016;stop-opacity:0;"
         offset="1"
         id="stop911" />
    </linearGradient>
    <linearGradient
       inkscape:collect="always"
       id="linearGradient903">
      <stop
         style="stop-color:#aa0000;stop-opacity:1;"
         offset="0"
         id="stop899" />
      <stop
         style="stop-color:#aa0000;stop-opacity:0;"
         offset="1"
         id="stop901" />
    </linearGradient>
    <linearGradient
       inkscape:collect="always"
       id="linearGradient871">
      <stop
         style="stop-color:#483e37;stop-opacity:1;"
         offset="0"
         id="stop867" />
      <stop
         style="stop-color:#483e37;stop-opacity:0;"
         offset="1"
         id="stop869" />
    </linearGradient>
    <linearGradient
       inkscape:collect="always"
       id="linearGradient851">
      <stop
         style="stop-color:#000380;stop-opacity:1;"
         offset="0"
         id="stop847" />
      <stop
         style="stop-color:#000380;stop-opacity:0;"
         offset="1"
         id="stop849" />
    </linearGradient>
    <linearGradient
       inkscape:collect="always"
       xlink:href="#linearGradient851"
       id="linearGradient853"
       x1="163.4877"
       y1="373.8573"
       x2="298.721"
       y2="373.8573"
       gradientUnits="userSpaceOnUse" />
    <linearGradient
       inkscape:collect="always"
       xlink:href="#linearGradient871"
       id="linearGradient873"
       x1="147.71834"
       y1="48.035002"
       x2="222.03109"
       y2="48.035002"
       gradientUnits="userSpaceOnUse" />
    <linearGradient
       inkscape:collect="always"
       xlink:href="#linearGradient903"
       id="linearGradient905"
       x1="248.18148"
       y1="150.06221"
       x2="399.93913"
       y2="150.06221"
       gradientUnits="userSpaceOnUse" />
    <linearGradient
       inkscape:collect="always"
       xlink:href="#linearGradient913"
       id="linearGradient915"
       x1="158.09306"
       y1="243.62515"
       x2="351.4708"
       y2="243.62515"
       gradientUnits="userSpaceOnUse" />
    <linearGradient
       inkscape:collect="always"
       xlink:href="#linearGradient921"
       id="linearGradient923"
       x1="69.521622"
       y1="97.349555"
       x2="286.374"
       y2="97.349555"
       gradientUnits="userSpaceOnUse" />
    <linearGradient
       inkscape:collect="always"
       xlink:href="#linearGradient931"
       id="linearGradient933"
       x1="130.21584"
       y1="300.40468"
       x2="242.26735"
       y2="300.40468"
       gradientUnits="userSpaceOnUse" />
  </defs>
  <sodipodi:namedview
     pagecolor="#ffffff"
     bordercolor="#666666"
     borderopacity="1"
     objecttolerance="10"
     gridtolerance="10"
     guidetolerance="10"
     inkscape:pageopacity="0"
     inkscape:pageshadow="2"
     inkscape:window-width="1920"
     inkscape:window-height="1001"
     id="namedview22"
     showgrid="false"
     inkscape:zoom="1.3350176"
     inkscape:cx="71.010716"
     inkscape:cy="229.37991"
     inkscape:window-x="-9"
     inkscape:window-y="-9"
     inkscape:window-maximized="1"
     inkscape:current-layer="svg20" />
  <metadata
     id="metadata2">
Created by potrace 1.15, written by Peter Selinger 2001-2017
<rdf:RDF>
  <cc:Work
     rdf:about="">
    <dc:format>image/svg+xml</dc:format>
    <dc:type
       rdf:resource="http://purl.org/dc/dcmitype/StillImage" />
  </cc:Work>
</rdf:RDF>
</metadata>
  <g
     transform="translate(0.000000,375.000000) scale(0.100000,-0.100000)"
     fill="#000000"
     stroke="none"
     id="g18">
    <path
       d="M1859 3510 c-164 -142 -310 -225 -511 -291 -91 -30 -131 -39 -158 -34 -50 8 -165 -19 -228 -56 -51 -29 -52 -31 -46 -64 7 -40 2 -43 -120 -85 -152 -52 -187 -49 -212 21 l-12 34 -23 -50 c-43 -94 -36 -192 18 -256 23 -27 71 -59 90 -59 4 0 6 27 5 60 -4 58 7 78 25 46 12 -21 64 -46 96 -46 32 0 33 4 7 30 -22 22 -27 69 -8 88 19 19 59 14 84 -9 26 -24 91 -39 120 -28 14 6 15 8 3 8 -23 1 -51 35 -43 55 8 22 20 20 78 -9 49 -25 106 -33 106 -16 0 5 -9 13 -21 16 -24 8 -22 38 4 43 10 2 48 -15 86 -37 37 -23 77 -41 89 -41 12 0 22 -4 22 -8 0 -11 -89 -42 -122 -42 -14 0 -34 -3 -42 -6 -15 -6 -15 -8 1 -20 10 -7 27 -14 38 -14 18 0 18 -1 3 -16 -9 -9 -48 -21 -87 -27 -39 -6 -71 -14 -71 -18 0 -3 17 -13 37 -20 l38 -15 -55 -12 c-30 -6 -77 -14 -105 -18 l-50 -6 24 -19 c13 -10 30 -19 38 -19 11 0 8 -9 -11 -31 -14 -17 -26 -39 -26 -49 0 -16 3 -17 38 -4 49 17 82 17 170 -1 65 -14 89 -14 145 2 25 6 21 31 -5 35 -61 8 -2 143 97 224 88 71 111 95 98 101 -7 2 -13 14 -13 24 0 28 -26 75 -52 93 -12 9 -41 16 -63 17 -55 1 -17 17 44 18 36 1 48 -4 77 -33 19 -19 34 -43 34 -55 0 -27 4 -26 64 4 48 24 123 33 159 19 8 -3 36 -32 63 -65 55 -69 118 -104 209 -114 l60 -6 -55 54 c-81 81 -153 158 -149 161 2 2 38 -3 79 -10 49 -8 102 -27 154 -54 l78 -40 -7 27 c-11 46 -73 140 -118 179 -51 44 -152 94 -207 101 -63 9 -157 -15 -258 -64 l-92 -46 -23 21 c-12 11 -38 22 -57 24 -32 3 -26 7 70 46 194 79 309 151 382 241 45 54 101 156 96 174 -2 8 -33 -13 -79 -53z"
       id="path4" />
    <path
       d="M1575 3499 c-83 -64 -166 -114 -377 -229 l-83 -45 63 -3 c59 -3 69 0 165 50 161 85 264 172 311 266 9 17 15 32 14 31 -2 -1 -43 -32 -93 -70z"
       id="path6" />
    <path
       d="M2210 3338 c-62 -12 -56 -17 45 -39 l60 -13 -110 -7 c-82 -5 -135 -15 -209 -39 -54 -17 -94 -35 -90 -39 5 -4 34 -18 64 -31 171 -75 271 -196 274 -330 1 -45 -6 -69 -34 -125 -19 -39 -37 -74 -38 -78 -6 -13 51 4 81 24 32 23 34 12 7 -41 -24 -46 -47 -63 -167 -124 -87 -43 -163 -98 -163 -117 0 -5 12 -4 28 2 15 6 63 14 107 19 44 5 89 11 100 15 37 13 -25 -32 -105 -76 -85 -46 -200 -121 -200 -130 0 -7 115 17 325 67 299 71 412 157 470 358 26 89 18 232 -18 309 -36 79 -91 146 -160 197 -32 24 -56 45 -53 47 10 10 124 -41 172 -77 64 -48 109 -115 137 -205 19 -59 22 -93 22 -215 0 -157 -13 -217 -74 -353 -70 -156 -140 -228 -354 -362 -43 -27 -74 -51 -68 -53 10 -3 115 27 160 45 11 4 12 -2 7 -31 l-7 -37 30 16 c48 24 96 71 133 128 l33 52 3 -32 c2 -18 -2 -42 -8 -53 -17 -31 -7 -34 39 -11 63 33 108 77 138 139 26 52 28 67 28 170 0 61 3 112 6 112 6 0 55 -104 65 -140 6 -22 9 -19 37 35 59 117 47 275 -30 387 -45 65 -18 65 48 -1 l49 -48 0 49 c0 120 -56 241 -156 342 -56 56 -56 56 -28 57 40 2 93 0 132 -7 17 -3 32 -1 32 4 0 14 -99 110 -145 141 -57 38 -159 79 -240 96 -80 17 -290 18 -375 3z m125 -223 c80 -38 146 -116 175 -204 32 -99 26 -232 -13 -308 -31 -59 -75 -113 -120 -145 -36 -26 -37 -27 16 102 85 207 58 402 -73 524 -70 66 -68 70 15 31z"
       id="path8" />
    <path
       d="M2621 2423 c-2 -18 -91 -101 -140 -129 -103 -57 -334 -122 -602 -169 -206 -37 -301 -76 -450 -186 -176 -130 -249 -281 -241 -497 2 -50 13 -48 43 9 67 133 356 326 552 369 63 15 79 9 54 -18 -51 -56 -72 -173 -42 -236 17 -35 91 -113 100 -104 3 2 0 19 -6 37 -17 49 -6 130 28 203 46 97 124 169 264 243 216 114 348 216 394 305 28 56 58 156 52 173 -4 8 -6 8 -6 0z m-361 -342 c0 -14 -138 -67 -220 -85 -41 -9 -128 -23 -194 -32 -120 -16 -207 -38 -293 -75 -46 -20 -47 -20 -29 0 23 25 136 84 201 104 61 19 124 31 320 57 123 16 173 26 213 39 1 1 2 -3 2 -8z"
       id="path10" />
    <path
       d="M1553 2148 c-215 -22 -373 -102 -465 -236 l-31 -45 64 6 c62 6 63 6 39 -11 -49 -32 -113 -106 -136 -157 -24 -52 -53 -210 -41 -222 4 -3 16 2 27 12 11 10 22 16 25 14 2 -3 -1 -36 -6 -74 -13 -78 -1 -180 28 -240 20 -42 25 -43 43 -10 13 25 13 24 29 -23 24 -69 56 -109 124 -153 68 -44 87 -48 87 -18 0 20 2 19 34 -8 32 -29 98 -64 144 -78 16 -5 22 -2 22 9 0 9 4 16 8 16 14 0 142 -45 211 -74 35 -15 65 -25 68 -23 4 5 -70 56 -139 95 -20 11 -86 41 -146 67 -178 75 -315 185 -375 300 -26 51 -31 74 -35 150 -4 104 14 208 52 291 51 111 263 299 429 380 59 29 73 45 35 42 -13 -2 -55 -6 -95 -10z"
       id="path12" />
    <path
       d="M1559 1657 c-69 -35 -132 -105 -149 -167 -5 -19 -10 -73 -11 -120 l-1 -85 -19 40 c-12 27 -19 63 -19 108 0 50 -3 68 -12 65 -24 -8 -118 -142 -118 -168 1 -38 63 -115 135 -168 71 -52 68 -50 274 -152 171 -84 213 -112 276 -182 113 -125 113 -257 0 -312 l-39 -20 29 -13 c34 -15 89 -9 124 14 l24 15 -7 -48 c-18 -136 -165 -236 -288 -195 -76 25 -94 151 -21 151 24 0 25 -2 20 -40 -6 -48 4 -50 44 -11 21 21 29 39 29 64 0 46 -25 67 -82 67 -141 0 -177 -200 -49 -267 64 -34 194 -33 269 2 92 43 172 154 207 287 38 144 2 254 -125 380 -44 44 -80 81 -80 82 0 0 63 0 140 0 157 -2 161 1 66 55 -61 35 -132 54 -283 76 -62 8 -130 22 -152 30 -44 15 -148 82 -171 110 -14 16 -12 17 20 9 66 -17 420 -3 420 16 0 21 -104 42 -241 49 -125 7 -152 11 -182 30 -85 52 -74 211 20 297 46 43 32 43 -48 1z"
       id="path14" />
    <path
       d="M2190 818 c0 -2 14 -30 30 -62 26 -50 30 -70 30 -135 0 -85 -30 -185 -75 -253 -15 -22 -24 -42 -22 -45 10 -9 78 61 104 106 35 60 33 59 48 38 17 -24 25 -10 32 57 8 76 -26 184 -74 237 -30 34 -73 67 -73 57z"
       id="path16" />
  </g>
  <path
     style="fill:#ffffff;stroke:#000000;stroke-width:1.13583207px;stroke-linecap:butt;stroke-linejoin:miter;stroke-opacity:1"
     d="m 100.4799,70.376926 1.80049,-4.824372 15.60439,-4.221326 c -4.30549,6.755567 -11.08619,7.323119 -17.40488,9.045698 z"
     id="path834"
     inkscape:connector-curvature="0"
     sodipodi:nodetypes="cccc" />
  <path
     style="opacity:1;fill:url(#linearGradient915);fill-opacity:1;fill-rule:evenodd;stroke:#a70000;stroke-width:1.81997323;stroke-miterlimit:4;stroke-dasharray:0, 20.01970576000000079;stroke-dashoffset:0;stroke-opacity:1"
     d="m 159.14038,300.33878 c 0.4277,-13.03326 1.8998,-19.95857 6.14911,-28.92779 6.04983,-12.76966 15.24265,-22.63986 31.51777,-33.84016 16.41484,-11.29646 27.06962,-15.21647 58.02126,-21.34669 25.76838,-5.10364 42.65869,-9.22405 56.17903,-13.70494 17.77977,-5.89255 24.63688,-9.88521 34.33582,-19.99253 l 4.74819,-4.94812 -0.52925,3.18801 c -0.75604,4.55412 -5.10909,16.45494 -7.54233,20.61999 -6.19621,10.60626 -21.07924,22.09029 -48.24067,37.22342 -15.31844,8.53475 -21.15784,12.53637 -27.33384,18.73131 -8.71085,8.73755 -13.98378,19.15996 -15.52638,30.6892 -0.70161,5.24378 -0.63382,6.93981 0.44983,11.25385 0.70177,2.79375 1.07726,5.27823 0.83443,5.52106 -0.77813,0.77813 -10.70257,-10.32223 -12.48606,-13.96548 -1.37874,-2.81645 -1.71125,-4.70807 -1.67144,-9.50835 0.0626,-7.55025 1.7115,-13.17921 5.53997,-18.91239 4.09621,-6.13411 4.00298,-6.46758 -1.67848,-6.00414 -14.74811,1.20304 -44.81591,16.62819 -62.71578,32.17397 -6.89965,5.99225 -11.96892,11.87625 -15.87278,18.42385 -4.22805,7.09135 -4.6101,6.48111 -4.1784,-6.67407 z m 51.1599,-53.07026 c 10.6867,-4.17829 19.84772,-6.33525 40.07672,-9.43603 9.65797,-1.48042 21.26778,-3.65572 25.79955,-4.834 8.50219,-2.2106 20.08497,-6.47155 23.27647,-8.5627 2.03475,-1.33322 2.55639,-3.84714 0.64617,-3.11412 -3.30548,1.26844 -12.50284,2.89054 -32.16223,5.67234 -24.77805,3.50609 -35.13192,5.64681 -43.5409,9.00233 -10.17753,4.06125 -22.75036,11.55695 -22.75036,13.56337 0,1.03677 0.44214,0.91971 8.65458,-2.29119 z"
     id="path820"
     inkscape:connector-curvature="0"
     transform="scale(0.75000001)" />
  <path
     style="opacity:1;fill:#800000;fill-opacity:1;fill-rule:evenodd;stroke:#a70000;stroke-width:1.81997323;stroke-miterlimit:4;stroke-dasharray:0, 20.01970576;stroke-dashoffset:0;stroke-opacity:1"
     d=""
     id="path822"
     inkscape:connector-curvature="0"
     transform="scale(0.75000001)" />
  <path
     style="opacity:1;fill:#800000;fill-opacity:1;fill-rule:evenodd;stroke:#a70000;stroke-width:1.81997323;stroke-miterlimit:4;stroke-dasharray:0, 20.01970576;stroke-dashoffset:0;stroke-opacity:1"
     d=""
     id="path824"
     inkscape:connector-curvature="0"
     transform="scale(0.75000001)" />
  <path
     style="opacity:1;fill:#800000;fill-opacity:1;fill-rule:evenodd;stroke:#a70000;stroke-width:1.81997323;stroke-miterlimit:4;stroke-dasharray:0, 20.01970576;stroke-dashoffset:0;stroke-opacity:1"
     d="m 314.00377,173.19727 c 0,-0.45568 1.72167,-5.13172 3.82594,-10.39121 6.96396,-17.40595 9.29457,-30.99292 7.42225,-43.27012 -2.05682,-13.48705 -6.69412,-22.211346 -17.14322,-32.252087 -2.29135,-2.201807 -3.90321,-4.266171 -3.5819,-4.587476 0.3213,-0.321305 3.45084,0.883691 6.95453,2.677769 17.24875,8.832296 27.09376,27.944694 25.40499,49.319454 -0.90917,11.50747 -3.94345,19.32088 -10.84045,27.9147 -4.56955,5.69377 -12.04214,12.26461 -12.04214,10.58897 z"
     id="path828"
     inkscape:connector-curvature="0"
     transform="scale(0.75000001)" />
  <path
     style="opacity:1;fill:url(#linearGradient853);fill-opacity:1;fill-rule:evenodd;stroke:#a70000;stroke-width:1.81997323;stroke-miterlimit:4;stroke-dasharray:0, 20.01970576000000079;stroke-dashoffset:0;stroke-opacity:1"
     d="m 233.85501,470.92984 c -5.91502,-1.30706 -9.37824,-3.19469 -12.62176,-6.87952 -7.13507,-8.10587 -5.84354,-21.58128 2.63988,-27.54365 5.96685,-4.19366 16.67043,-3.37191 18.86674,1.44847 1.5347,3.36832 1.03482,7.31773 -1.3414,10.59801 -2.08627,2.88002 -4.99063,5.43531 -6.1778,5.43531 -0.30148,0 -0.64783,-2.27525 -0.76964,-5.05611 l -0.22149,-5.05612 -2.79532,0.0842 c -3.47107,0.10459 -4.8317,1.19459 -5.88668,4.71581 -1.23631,4.12641 0.25515,8.69755 4.07624,12.49316 10.0776,10.01041 32.63447,2.43773 40.48283,-13.59069 1.76786,-3.61046 4.58914,-15.17069 3.87637,-15.88346 -0.11664,-0.11664 -2.14881,0.80673 -4.51595,2.05191 -3.34139,1.75768 -5.26697,2.26398 -8.61037,2.26398 -4.25223,0 -9.02436,-1.14813 -9.02436,-2.17118 0,-0.28958 1.44332,-1.22774 3.20738,-2.08478 4.9007,-2.38094 7.75478,-5.14763 9.96007,-9.65508 4.52059,-9.23975 0.59143,-21.84587 -10.54549,-33.8337 -7.64567,-8.22984 -13.87852,-12.18891 -39.25015,-24.93156 -11.69992,-5.87616 -24.34021,-12.71672 -28.08952,-15.20123 -12.462,-8.25805 -24.06299,-21.95142 -22.57338,-26.64475 1.35378,-4.26539 14.24583,-21.69076 15.28342,-20.65763 0.26017,0.25906 0.84864,4.62309 1.30772,9.69786 0.69683,7.7031 1.21248,10.01253 3.12239,13.98437 l 2.28771,4.75751 0.0741,-6.74148 c 0.21295,-19.38261 2.56426,-26.9673 10.897,-35.15065 4.3686,-4.29029 13.47683,-10.13547 17.61515,-11.30446 1.7432,-0.49242 1.68486,-0.32902 -0.84398,2.36408 -7.253,7.72413 -10.40409,15.16719 -10.37538,24.50727 0.0239,7.76412 3.10633,13.91816 8.33393,16.6384 3.25087,1.69163 7.86643,2.44666 20.11366,3.29028 6.38569,0.43985 14.47547,1.15272 17.97729,1.58415 12.21828,1.5053 20.09375,4.30533 15.41335,5.48004 -7.29008,1.8297 -46.51582,2.65755 -53.62991,1.13185 -2.1086,-0.45221 -4.0388,-0.61723 -4.28932,-0.36671 -1.27589,1.27589 10.9442,10.52396 19.65974,14.87833 5.26933,2.6326 7.69513,3.21889 25.64389,6.19783 8.74841,1.45196 18.52356,3.30694 21.72256,4.12217 6.53503,1.66538 14.9236,5.42301 20.18019,9.03964 3.06861,2.11126 3.32889,2.48731 2.0643,2.98257 -0.79587,0.3117 -8.991,0.59041 -18.2114,0.61936 l -16.76436,0.0527 7.9775,8.25721 c 16.9211,17.5144 22.13812,28.03179 21.17009,42.67844 -1.26497,19.13962 -13.43814,40.42537 -27.34418,47.81343 -7.76434,4.12507 -20.6657,5.66287 -30.07163,3.58443 z"
     id="path832"
     inkscape:connector-curvature="0"
     transform="scale(0.75000001)" />
  <path
     style="opacity:1;fill:url(#linearGradient905);fill-opacity:1;fill-rule:evenodd;stroke:#a70000;stroke-width:1.81997323;stroke-miterlimit:4;stroke-dasharray:0, 20.01970576000000079;stroke-dashoffset:0;stroke-opacity:1"
     d="m 323.53545,242.94255 c 0.77199,-4.83113 0.71133,-5.06353 -1.29209,-4.94987 -1.02995,0.0584 -5.07484,1.10408 -8.98865,2.32367 -9.26404,2.8868 -11.45634,3.40177 -10.9425,2.57037 0.23035,-0.37272 6.86734,-4.98316 14.74886,-10.2454 22.34816,-14.92119 31.7741,-24.93223 39.93746,-42.41649 7.46394,-15.98623 9.82339,-25.56608 10.59265,-43.00819 1.17201,-26.5738 -3.30521,-43.60378 -14.75798,-56.134934 -4.65659,-5.095055 -8.46048,-7.782393 -16.99558,-12.006873 -7.10494,-3.516623 -11.86872,-5.081593 -12.47622,-4.098626 -0.21551,0.348708 1.55147,2.25237 3.92664,4.230362 18.69811,15.571389 26.09169,27.581221 27.88856,45.300951 2.44449,24.10647 -7.19199,46.08246 -25.10214,57.24537 -10.7044,6.67176 -23.09382,10.83298 -52.02527,17.47368 -20.12861,4.62017 -28.48569,6.30408 -28.95539,5.83437 -0.52818,-0.52817 12.54085,-8.99077 25.58464,-16.56683 11.39421,-6.61796 15.99059,-9.77215 15.27828,-10.48446 -0.51747,-0.51747 -25.79326,3.10495 -28.9987,4.15597 -3.68271,1.20751 -3.73726,0.29533 -0.17695,-2.95911 3.50591,-3.20472 10.07653,-7.22801 23.54348,-14.41603 10.99551,-5.86887 15.28313,-9.59378 17.99255,-15.63116 1.11916,-2.49382 1.83315,-4.86052 1.58666,-5.25936 -0.25769,-0.41695 -2.26566,0.21936 -4.72452,1.49717 -2.35199,1.22228 -5.36807,2.4336 -6.70241,2.69181 l -2.42607,0.46949 4.13523,-8.69961 c 5.18535,-10.90884 6.05977,-14.93605 4.93358,-22.72197 -1.2791,-8.84314 -5.55273,-16.95631 -12.74043,-24.186839 -7.05786,-7.099899 -10.67426,-9.577842 -22.56198,-15.459361 l -9.36317,-4.632485 3.57856,-1.549344 c 10.56688,-4.574946 22.42197,-7.118918 38.72033,-8.308957 6.37323,-0.465348 11.70099,-0.95939 11.83947,-1.097873 0.13849,-0.138482 -3.72768,-1.167346 -8.59147,-2.286363 -4.86379,-1.119018 -9.1321,-2.304735 -9.48512,-2.634926 -0.35303,-0.330191 1.33234,-1.050953 3.74527,-1.601692 3.06433,-0.699421 10.37227,-1.002764 24.23706,-1.006049 16.4254,-0.0039 20.94836,0.23169 26.21688,1.365522 12.37045,2.662229 27.99983,9.485991 35.18853,15.363258 5.29323,4.327591 12.67033,11.386127 14.31721,13.698955 l 1.50551,2.114292 -12.02265,-0.473319 c -10.31959,-0.406269 -12.02266,-0.316545 -12.02266,0.633399 0,0.608694 2.82293,4.157128 6.27318,7.885409 13.50774,14.596263 19.14075,26.665173 20.38536,43.676333 l 0.52064,7.11601 -5.68504,-5.39098 c -6.02798,-5.7162 -9.85588,-8.22558 -10.63199,-6.96981 -0.25228,0.40819 1.4254,4.0305 3.72817,8.04958 6.23379,10.88003 7.50677,15.61233 7.50677,27.90641 0,6.48032 -0.36152,11.18834 -1.00657,13.10844 -1.48814,4.42974 -6.26635,14.60655 -6.85806,14.60655 -0.2818,0 -0.89138,-1.26505 -1.35462,-2.81122 -1.12889,-3.76791 -7.29248,-16.36441 -8.31712,-16.99768 -0.53041,-0.3278 -0.83457,0.49335 -0.87015,2.34919 -0.0301,1.56923 -0.30346,8.75196 -0.60749,15.9616 -0.5376,12.74878 -0.61873,13.23985 -2.95687,17.89787 -3.40361,6.78061 -6.98819,11.40188 -11.54219,14.88028 -4.15171,3.17111 -11.70861,7.26746 -12.30561,6.67046 -0.19359,-0.19358 0.032,-1.64881 0.5013,-3.23384 0.4693,-1.58503 0.74547,-4.90432 0.61371,-7.3762 l -0.23956,-4.49432 -3.62284,5.55422 c -4.66272,7.14847 -10.94724,13.76542 -16.53048,17.40487 -2.43276,1.58579 -4.68681,2.88326 -5.00902,2.88326 -0.32221,0 -0.38385,-1.26403 -0.13698,-2.80895 z m -5.29189,-71.21913 c 4.63912,-3.67003 7.91155,-7.42055 12.03127,-13.78899 4.18144,-6.46385 6.00915,-11.80144 7.04311,-20.56855 2.88847,-24.49175 -8.52497,-45.796474 -29.18951,-54.486117 -2.61346,-1.098988 -5.12592,-1.873435 -5.58325,-1.720994 -0.45732,0.152441 2.42954,3.722369 6.41525,7.933173 5.61036,5.927204 7.9274,9.044877 10.26101,13.806628 4.54764,9.27946 5.63,14.23886 5.59277,25.62601 -0.0387,11.83536 -1.41956,18.02377 -7.40128,33.16948 -5.59119,14.15686 -5.51713,15.05111 0.83063,10.02936 z"
     id="path837"
     inkscape:connector-curvature="0"
     transform="scale(0.75000001)" />
  <path
     style="opacity:1;fill:#483e37;fill-opacity:1;fill-rule:evenodd;stroke:#a70000;stroke-width:1.81997323;stroke-miterlimit:4;stroke-dasharray:0, 20.01970576;stroke-dashoffset:0;stroke-opacity:1"
     d="m 122.99505,168.05921 c 0,-0.80494 1.39311,-3.40899 3.09581,-5.78677 2.456,-3.42977 2.88171,-4.45883 2.05989,-4.97932 -0.56975,-0.36084 -1.37298,-0.67061 -1.78496,-0.68839 -0.41198,-0.0177 -2.07313,-1.03415 -3.69144,-2.25863 l -2.94239,-2.22632 h 2.70526 c 3.22456,0 22.78745,-3.5354 24.3254,-4.39608 0.75222,-0.42097 -0.28516,-1.09737 -3.45636,-2.25364 -2.49213,-0.90868 -4.71546,-1.95037 -4.94073,-2.31486 -0.22527,-0.3645 1.53313,-1.03773 3.90756,-1.49608 9.62553,-1.85806 14.52866,-3.25933 16.31142,-4.66164 2.33835,-1.83934 1.94733,-2.53029 -1.76815,-3.12443 -2.76976,-0.4429 -5.3061,-2.27857 -4.4001,-3.18457 0.23187,-0.23188 2.99535,-0.74113 6.14106,-1.13167 6.05412,-0.75162 13.49867,-3.12115 15.37339,-4.8932 0.99873,-0.94405 0.99873,-1.141 0,-1.77255 -0.61797,-0.39077 -1.71455,-0.71566 -2.43684,-0.72196 -0.7223,-0.006 -6.02528,-2.4278 -11.78441,-5.38109 -9.45944,-4.85081 -10.65812,-5.28444 -12.40612,-4.48799 -2.65161,1.20815 -2.31435,4.57113 0.59775,5.96041 1.13294,0.5405 2.0599,1.34856 2.0599,1.7957 0,1.5837 -7.93692,0.0192 -14.02798,-2.76504 -7.46105,-3.41054 -9.47838,-3.31333 -9.79448,0.47197 -0.19749,2.36485 0.14387,3.02736 2.60509,5.05612 l 2.83236,2.33466 -3.35415,-0.004 c -4.71872,-0.006 -7.96733,-1.0551 -12.69206,-4.09921 -6.30941,-4.06513 -11.29399,-3.47855 -12.66602,1.49052 -0.90278,3.26959 0.0594,7.03239 2.55732,10.00101 1.01412,1.20553 1.84385,2.4427 1.84385,2.7496 0,0.91897 -7.22228,-0.22508 -9.884691,-1.56578 -1.361083,-0.6854 -3.752506,-2.47066 -5.314271,-3.96725 -3.710376,-3.55554 -4.250002,-2.69773 -4.264967,6.77971 l -0.01147,7.26431 -2.075402,-0.72349 c -1.14147,-0.39792 -3.976133,-2.21531 -6.299251,-4.03865 -10.353335,-8.12597 -12.354386,-22.40982 -5.331686,-38.05848 l 1.984272,-4.421544 2.080168,4.582524 c 2.548365,5.61394 5.426225,7.22934 11.484312,6.44636 5.607166,-0.7247 28.732566,-8.606641 31.016196,-10.571399 1.70882,-1.470214 1.97239,-2.277678 1.97239,-6.042544 v -4.345563 l 4.86885,-2.849385 c 8.197,-4.797109 17.48173,-7.355774 29.2131,-8.050484 10.66917,-0.631808 15.81812,-1.833091 29.96215,-6.990365 22.45917,-8.189187 38.85989,-17.703781 58.05167,-33.677679 9.77895,-8.139319 12.23126,-9.909693 12.85827,-9.282683 0.78701,0.787018 -3.36163,9.089523 -8.13313,16.276478 -9.99443,15.053865 -24.6355,25.115044 -55.50735,38.144035 -6.09531,2.572429 -10.96578,5.026918 -10.82328,5.454421 0.1425,0.427503 1.8554,1.182597 3.80645,1.677986 1.95104,0.49539 4.79907,1.918302 6.32895,3.162025 l 2.78159,2.261317 7.31204,-3.661801 C 222.236,79.630311 235.53897,76.39534 245.69544,78.79344 c 5.09264,1.202451 16.28074,6.727089 21.69526,10.713035 5.33065,3.924203 12.76508,13.384105 15.94706,20.291765 2.46861,5.35902 3.349,8.14401 2.45511,7.76642 -0.35922,-0.15173 -4.18668,-2.01934 -8.50547,-4.15023 -4.31878,-2.13088 -10.01392,-4.57441 -12.65587,-5.43006 -5.02071,-1.62606 -18.74658,-4.09879 -19.358,-3.48738 -0.57473,0.57473 2.28985,3.8801 14.16944,16.34979 10.14221,10.64602 11.03818,11.7976 9.17895,11.7976 -4.67898,0 -12.26191,-1.83128 -17.49099,-4.22408 -4.85663,-2.22237 -6.6952,-3.7099 -14.35191,-11.61162 l -8.78169,-9.06273 -7.37065,0.31533 c -6.45684,0.27624 -8.16384,0.65885 -13.76842,3.08604 -3.51878,1.52389 -6.62373,2.77072 -6.89988,2.77072 -0.27615,0 -0.86403,-1.34411 -1.3064,-2.98692 -1.08081,-4.01382 -7.29192,-10.24991 -10.87913,-10.92288 -4.76463,-0.893851 -16.7838,1.09363 -13.07209,2.16159 0.60642,0.17449 3.08783,0.69031 5.51425,1.14627 2.42641,0.45596 5.20348,1.34783 6.17124,1.98194 2.07842,1.36183 6.25172,8.3475 6.26839,10.49263 0.007,0.82396 0.54809,2.50933 1.20374,3.74527 l 1.19211,2.24716 -5.87831,5.24338 c -12.48031,11.13229 -17.74616,16.96428 -20.67879,22.90201 -1.8146,3.67403 -2.79823,6.71011 -2.79081,8.61412 0.0139,3.54328 0.44397,4.26593 3.35928,5.64375 7.7542,3.66476 -6.41522,6.70659 -18.95404,4.06896 -11.59989,-2.44011 -14.4895,-2.35097 -25.4274,0.78432 -1.33757,0.38341 -1.68537,0.18108 -1.68537,-0.98043 z m 21.51631,-77.545106 c 4.21683,-1.368485 10.693,-5.773776 10.693,-7.273708 0,-0.329314 -2.78086,0.175621 -6.17969,1.122077 -3.39883,0.946456 -7.58087,2.089384 -9.29341,2.539841 -2.48968,0.65487 -3.27783,1.28976 -3.93254,3.167863 -0.45034,1.291868 -0.81881,2.493871 -0.81881,2.671118 0,0.479235 4.2571,-0.515511 9.53145,-2.227191 z"
     id="path863"
     inkscape:connector-curvature="0"
     transform="scale(0.75000001)" />
  <path
     style="opacity:1;fill:url(#linearGradient873);fill-opacity:1;fill-rule:evenodd;stroke:#a70000;stroke-width:1.81997323;stroke-miterlimit:4;stroke-dasharray:0, 20.01970576000000079;stroke-dashoffset:0;stroke-opacity:1"
     d="m 154.61641,69.809988 -3.95869,-0.460654 15.56903,-8.53788 c 22.44692,-12.309644 31.88463,-18.136913 44.08811,-27.222 5.94343,-4.42469 10.80624,-7.836463 10.80624,-7.581718 0,1.661299 -5.59088,9.660467 -9.98569,14.287058 -8.69713,9.155816 -22.92726,18.849339 -38.32828,26.109113 -7.17302,3.381235 -11.47765,4.187247 -18.19072,3.406081 z"
     id="path865"
     inkscape:connector-curvature="0"
     transform="scale(0.75000001)" />
  <path
     style="opacity:1;fill:url(#linearGradient923);fill-opacity:1;fill-rule:evenodd;stroke:#a70000;stroke-width:1.81997323;stroke-miterlimit:4;stroke-dasharray:0, 20.01970576000000079;stroke-dashoffset:0;stroke-opacity:1"
     d="m 154.82984,168.47374 c -2.47188,-0.27487 -6.01116,-0.74632 -7.86507,-1.04766 -4.06153,-0.66019 -12.99689,-0.68032 -16.10466,-0.0363 -7.13526,1.47868 -7.91975,1.47829 -7.38274,-0.004 0.28078,-0.77486 1.15276,-2.33579 1.93774,-3.46873 0.78497,-1.13295 1.23573,-2.0599 1.00169,-2.0599 -0.23405,0 0.24097,-0.6665 1.05558,-1.48112 1.73747,-1.73747 1.32552,-3.45257 -0.97353,-4.05321 -0.89714,-0.23435 -2.64239,-1.26387 -3.87833,-2.28779 l -2.24716,-1.86167 2.24716,-0.0786 c 1.23594,-0.0432 3.25839,-0.23664 4.49433,-0.42988 1.23593,-0.19323 3.08984,-0.47894 4.11979,-0.63492 6.0331,-0.91364 8.01476,-1.27624 10.78231,-1.97294 1.69135,-0.42578 3.49653,-0.80978 4.0115,-0.85334 0.51498,-0.0436 0.93632,-0.37657 0.93632,-0.74003 0,-0.84535 -6.10527,-3.60248 -6.8956,-3.11403 -0.32721,0.20223 -0.59494,-0.1185 -0.59494,-0.71273 0,-1.03435 1.64753,-1.83856 4.86885,-2.37662 7.4893,-1.25094 13.31051,-3.12286 14.678,-4.71998 1.11191,-1.29862 1.03892,-1.44871 -1.12662,-2.31629 -5.62375,-2.25306 -6.20726,-3.83324 -1.56652,-4.24225 1.64792,-0.14524 3.8389,-0.46824 4.86885,-0.71779 1.02995,-0.24953 2.88386,-0.62283 4.1198,-0.82953 5.56831,-0.93129 11.44695,-5.399 7.80697,-5.93324 -1.33333,-0.19569 -17.4858,-7.57465 -19.79183,-9.04154 -5.75763,-3.66248 -10.65589,0.19029 -5.87503,4.62105 1.09452,1.01437 1.8134,2.02094 1.5975,2.23684 -0.21589,0.2159 -1.97602,0.0377 -3.9114,-0.39606 -1.93537,-0.43372 -3.83401,-0.59382 -4.21919,-0.35577 -0.38518,0.23806 -0.70032,0.10884 -0.70032,-0.28716 0,-0.86181 -4.17861,-2.43067 -4.80517,-1.80411 -0.24102,0.24102 -0.43821,0.0251 -0.43821,-0.47989 0,-0.50496 -0.28742,-0.74047 -0.6387,-0.52337 -0.35129,0.21711 -1.27824,-0.0893 -2.0599,-0.68102 -1.74804,-1.32317 -4.19082,-1.42491 -5.39118,-0.22455 -1.61216,1.61216 -0.98529,4.55666 1.53556,7.21282 l 2.43442,2.5651 -4.11979,-0.51887 c -2.26589,-0.28537 -5.55937,-1.15497 -7.31886,-1.93242 -1.75948,-0.77745 -3.40717,-1.40061 -3.66152,-1.3848 -0.25435,0.0158 -0.66869,-0.25285 -0.92074,-0.59702 -1.03364,-1.41143 -3.64665,-2.25073 -6.81557,-2.18916 -3.15438,0.0613 -3.44678,0.24679 -4.7545,3.01658 -1.22854,2.60205 -1.2781,3.30071 -0.41885,5.90426 0.53601,1.62413 1.36704,3.34544 1.84672,3.82512 0.47969,0.47969 1.08637,1.54705 1.34817,2.37193 0.42315,1.33322 0.14325,1.49569 -2.52049,1.46317 -1.64807,-0.0202 -2.99756,-0.31749 -2.99887,-0.6608 -0.001,-0.34332 -0.41642,-0.4862 -0.922474,-0.31752 -0.506055,0.16869 -1.264472,0.0333 -1.685371,-0.30081 -0.420899,-0.33413 -1.860763,-1.48525 -3.199696,-2.55803 -1.338934,-1.07278 -2.434425,-1.75201 -2.434425,-1.50939 0,0.24261 -0.702238,-0.26113 -1.560529,-1.11942 -2.430757,-2.43076 -2.787976,-1.42406 -2.876483,8.10636 -0.05675,6.11103 -0.0756,6.16979 -1.929945,6.01632 -1.029949,-0.0852 -1.872635,-0.35365 -1.872635,-0.59647 0,-0.24282 -1.502232,-1.50036 -3.338293,-2.79454 -1.836062,-1.29417 -4.35817,-3.80284 -5.604687,-5.57483 -1.246516,-1.77198 -2.622704,-3.64313 -3.058196,-4.1581 -0.435492,-0.51498 -0.568704,-0.93632 -0.296027,-0.93632 0.272678,0 0.120355,-0.45235 -0.338495,-1.00524 -0.45885,-0.55287 -0.634907,-1.2046 -0.391238,-1.44827 0.24367,-0.24367 0.19211,-0.84904 -0.114576,-1.34527 -1.03034,-1.66712 -0.260177,-12.63445 1.245566,-17.73716 0.82049,-2.78051 1.529393,-5.47681 1.575339,-5.99179 0.04595,-0.51497 0.341719,-0.93631 0.657273,-0.93631 0.315554,0 0.787701,-0.674151 1.049215,-1.498111 0.261515,-0.823959 0.84602,-1.498107 1.2989,-1.498107 0.452881,0 0.613146,0.210274 0.356144,0.467276 -0.490174,0.490173 1.739587,5.097252 3.399158,7.023262 0.532481,0.61797 1.639803,1.4978 2.460714,1.95518 1.885599,1.05058 10.577306,0.69086 12.008581,-0.49699 0.591516,-0.49091 1.075483,-0.69996 1.075483,-0.46455 0,0.23541 1.17976,-0.0649 2.621688,-0.66739 1.441929,-0.60247 2.621689,-0.88107 2.621689,-0.61912 0,0.26197 0.50561,0.0567 1.12358,-0.45618 0.61797,-0.51287 1.12358,-0.68141 1.12358,-0.37453 0,0.30688 0.50561,0.13834 1.12358,-0.37453 0.61797,-0.51287 1.12358,-0.6814 1.12358,-0.37452 0,0.30688 0.50561,0.13834 1.12358,-0.37453 0.61797,-0.51287 1.12358,-0.65527 1.12358,-0.31643 0,0.33883 0.40449,0.21156 0.89887,-0.28281 0.49437,-0.49438 1.42133,-0.90179 2.0599,-0.90536 0.63856,-0.004 3.34714,-1.09906 6.01906,-2.434423 5.19828,-2.597982 5.78797,-3.511707 5.92858,-9.186346 0.0655,-2.642724 0.39696,-3.186708 2.69636,-4.425013 1.44193,-0.77653 2.62169,-1.639688 2.62169,-1.91813 0,-0.278441 0.42134,-0.534606 0.93631,-0.569255 0.51498,-0.03465 2.99776,-0.928626 5.5173,-1.986616 5.03967,-2.116223 13.924,-4.192501 17.93961,-4.192501 1.41499,0 2.57271,-0.25928 2.57271,-0.576178 0,-0.316897 2.10672,-0.581651 4.68159,-0.588341 2.57487,-0.0067 5.77708,-0.253022 7.11601,-0.547403 1.33893,-0.294382 3.52034,-0.735788 4.84757,-0.980902 3.43896,-0.63511 20.7529,-6.816107 22.0059,-7.856005 0.57683,-0.478728 1.04878,-0.651947 1.04878,-0.384934 0,0.267015 1.00769,-0.03562 2.23932,-0.672513 1.23162,-0.636896 2.41273,-1.148462 2.6247,-1.136813 0.79983,0.04395 14.25707,-6.951722 14.69513,-7.639184 0.25205,-0.395553 0.58913,-0.659229 0.74905,-0.585946 0.60379,0.276666 4.41058,-1.771208 4.41058,-2.372684 0,-0.34585 0.44973,-0.628819 0.9994,-0.628819 1.12027,0 9.72281,-5.815271 10.11156,-6.835368 0.13733,-0.360343 0.73779,-0.65517 1.33436,-0.65517 0.59657,0 1.27869,-0.505611 1.51582,-1.123581 0.23714,-0.617969 0.91129,-1.12358 1.49811,-1.12358 0.58682,0 1.26097,-0.505612 1.49811,-1.123581 0.23714,-0.617969 0.76482,-1.123581 1.17265,-1.123581 0.78345,0 16.08026,-12.216443 17.57785,-14.038146 0.74161,-0.902111 1.00563,-0.826017 1.71173,0.493325 0.45918,0.857978 0.53712,1.559961 0.17322,1.559961 -0.36391,0 -1.29945,1.432565 -2.07899,3.183478 -5.45371,12.24955 -18.45474,26.090324 -31.58129,33.621138 -2.16289,1.240871 -3.93253,2.624643 -3.93253,3.07505 0,0.450408 -0.20872,0.610204 -0.46382,0.355104 -0.52053,-0.520531 -10.89075,4.498841 -11.60479,5.616925 -0.25205,0.394676 -0.75766,0.690475 -1.12358,0.657329 -1.35069,-0.122349 -5.53416,1.569103 -5.53416,2.237563 0,0.380029 -0.2528,0.63567 -0.56179,0.56809 -1.22439,-0.267797 -4.68158,1.081399 -4.68158,1.827027 0,0.43598 -0.21286,0.579835 -0.47301,0.319677 -0.26017,-0.260158 -1.18712,-0.07547 -2.0599,0.410405 -0.87279,0.485881 -1.78329,0.895364 -2.02334,0.909963 -0.63872,0.03884 -8.17767,4.192591 -8.17767,4.505663 0,0.146203 1.60111,0.860758 3.55801,1.587898 1.9569,0.727141 4.92911,2.284859 6.60491,3.461594 2.87665,2.019967 5.56721,2.241925 5.56721,0.459267 0,-0.392216 0.3099,-0.521592 0.68867,-0.287502 0.37876,0.234091 1.18132,-0.06704 1.78346,-0.669178 0.60214,-0.602137 1.30346,-0.88613 1.55849,-0.631095 0.25504,0.255035 0.46371,0.05055 0.46371,-0.454403 0,-0.504957 0.30989,-0.726575 0.68866,-0.492485 0.37877,0.23409 1.18133,-0.06704 1.78346,-0.669178 0.60214,-0.602137 1.30347,-0.886131 1.5585,-0.631096 0.25503,0.255035 0.4637,0.07045 0.4637,-0.410196 0,-0.480643 0.2528,-0.804801 0.56179,-0.720351 0.90334,0.246897 6.17969,-1.716374 6.17969,-2.299396 0,-0.292358 0.72809,-0.586406 1.61797,-0.653439 0.88989,-0.06703 1.81685,-0.391569 2.0599,-0.721192 0.24306,-0.329622 0.779,-0.605879 1.19098,-0.613903 1.78739,-0.03481 8.61412,-2.194542 8.61412,-2.725199 0,-0.321165 0.48947,-0.396109 1.08771,-0.166542 0.59825,0.229566 1.51344,0.15428 2.03377,-0.167303 1.13148,-0.699293 13.4107,-0.91491 14.48128,-0.254283 1.40205,0.86516 10.48438,4.052137 11.04855,3.87692 0.30898,-0.09596 0.56179,0.18249 0.56179,0.618784 0,0.436293 0.33707,0.584937 0.74905,0.33032 0.41198,-0.254618 0.74906,-0.17865 0.74906,0.168818 0,0.347468 1.01122,1.229103 2.24716,1.95919 1.23594,0.730087 2.24716,1.155932 2.24716,0.946322 0,-0.20961 0.89552,0.448828 1.99004,1.463197 1.09452,1.014368 2.13824,1.696102 2.31938,1.514964 0.51347,-0.513473 8.27166,8.430258 11.64361,13.422912 1.66947,2.47187 3.22923,4.66286 3.46615,4.86884 0.23691,0.20599 0.54029,0.88014 0.67419,1.49811 0.13389,0.61797 0.55733,1.23664 0.94098,1.37482 0.38365,0.13819 0.52262,0.53427 0.30884,0.88019 -0.2138,0.34592 0.007,1.49831 0.49153,2.56088 0.48414,1.06256 0.69615,2.11602 0.47114,2.34103 -0.34871,0.34871 -8.7772,-3.3623 -15.75164,-6.93536 -1.13294,-0.58042 -2.0599,-0.82644 -2.0599,-0.54671 0,0.27972 -0.4478,0.13695 -0.9951,-0.31727 -0.54731,-0.45423 -1.6428,-0.95048 -2.43443,-1.10278 -0.79163,-0.15229 -1.94493,-0.47978 -2.5629,-0.72775 -0.61797,-0.24796 -2.47188,-0.6694 -4.11979,-0.93652 -1.64792,-0.26712 -3.83891,-0.63705 -4.86885,-0.82206 -1.02995,-0.18502 -3.13497,-0.46304 -4.67782,-0.61783 -2.67026,-0.26791 -2.76461,-0.20309 -1.96164,1.34764 0.46395,0.896 1.9427,2.80885 3.28612,4.25078 1.34341,1.44192 6.35532,6.80019 11.13755,11.90726 4.78223,5.10707 8.69497,9.54911 8.69497,9.87119 0,1.88121 -15.79477,-2.21859 -21.15436,-5.49098 -1.54139,-0.94112 -6.78771,-5.64978 -11.65847,-10.46367 -6.40017,-6.32545 -9.258,-8.66956 -10.3059,-8.45329 -0.79749,0.16459 -4.14657,0.46758 -7.4424,0.67333 -4.34444,0.2712 -7.51426,1.00362 -11.5261,2.66323 -6.09146,2.51989 -7.57477,2.77685 -7.57477,1.31221 0,-1.92103 -4.47747,-7.9901 -7.52152,-10.19521 -2.93258,-2.124342 -3.43083,-2.232768 -9.26457,-2.015999 -6.1525,0.228619 -10.29126,1.406109 -7.93269,2.256879 0.61797,0.22291 2.68039,0.74269 4.58314,1.15506 1.90276,0.41238 4.31343,1.07441 5.35704,1.47119 2.65989,1.01129 5.71227,5.29126 7.67648,10.76377 0.91938,2.56149 1.9183,5.24713 2.21984,5.9681 0.36497,0.87266 0.20846,1.31365 -0.46822,1.31925 -0.55906,0.004 -5.07235,3.96524 -10.02956,8.80138 -9.64074,9.40529 -13.08399,13.19603 -13.08399,14.40439 0,0.41555 -0.2699,0.75554 -0.59979,0.75554 -1.16153,0 -4.07068,7.16052 -4.42954,10.90279 -0.34886,3.63789 -0.25713,3.86762 2.3331,5.84328 1.48293,1.13108 2.69623,2.32233 2.69623,2.64722 0,2.09371 -7.66413,3.1426 -16.10465,2.20405 z M 140.88953,91.753401 c 4.38507,-0.916691 14.31483,-6.411809 14.31483,-7.921807 0,-0.911092 -8.01827,0.293287 -10.11222,1.518899 -0.41198,0.241136 -1.08613,0.456929 -1.49811,0.47954 -4.2678,0.234234 -7.63908,2.4982 -8.2212,5.520898 -0.3285,1.705758 -0.617,1.684711 5.5167,0.40247 z"
     id="path875"
     inkscape:connector-curvature="0"
     transform="scale(0.75000001)" />
  <path
     style="opacity:1;fill:#483e37;fill-opacity:1;fill-rule:evenodd;stroke:#a70000;stroke-width:1.81997323;stroke-miterlimit:4;stroke-dasharray:0, 20.01970576;stroke-dashoffset:0;stroke-opacity:1"
     d="M 165.69112,65.015444 V 61.05608 l 8.25188,-4.654755 c 4.53854,-2.560115 8.55936,-4.654755 8.93515,-4.654755 0.37579,0 1.14439,-0.46114 1.70801,-1.024756 0.56361,-0.563617 1.76745,-1.26048 2.67519,-1.548585 1.58685,-0.503646 1.65043,-0.334296 1.65043,4.395499 0,2.70563 -0.2528,4.847715 -0.56179,4.760188 -0.61737,-0.174883 -4.08496,1.586822 -4.68158,2.378475 -0.43752,0.580545 -16.65748,8.267417 -17.44496,8.267417 -0.29278,0 -0.53233,-1.781714 -0.53233,-3.959364 z"
     id="path889"
     inkscape:connector-curvature="0"
     transform="scale(0.75000001)" />
  <path
     style="opacity:1;fill:#483e37;fill-opacity:1;fill-rule:evenodd;stroke:#a70000;stroke-width:1.81997323;stroke-miterlimit:4;stroke-dasharray:0, 20.01970576;stroke-dashoffset:0;stroke-opacity:1"
     d="m 188.76083,53.079182 -0.22357,-4.703354 8.84217,-5.805167 c 4.8632,-3.192842 8.99236,-5.805167 9.17591,-5.805167 0.18355,0 0.32308,1.601103 0.31006,3.558006 -0.0178,2.675125 -0.47355,4.069147 -1.8367,5.617903 -0.99717,1.132944 -2.16342,2.059898 -2.59167,2.059898 -0.42825,0 -1.19965,0.674149 -1.71422,1.498108 -0.51457,0.823959 -1.33202,1.498107 -1.81656,1.498107 -0.48454,0 -0.99334,0.272428 -1.13066,0.605395 -0.21518,0.521722 -5.16441,4.068995 -7.89118,5.655858 -0.65212,0.379503 -0.96159,-0.771699 -1.12358,-4.179587 z"
     id="path891"
     inkscape:connector-curvature="0"
     transform="scale(0.75000001)" />
  <path
     style="opacity:1;fill:#483e37;fill-opacity:1;fill-rule:evenodd;stroke:#a70000;stroke-width:1.81997323;stroke-miterlimit:4;stroke-dasharray:0, 20.01970576;stroke-dashoffset:0;stroke-opacity:1"
     d="m 206.91399,40.414768 -0.0249,-4.215791 7.11602,-5.348732 c 3.9138,-2.941802 7.11284,-5.089587 7.10898,-4.772854 -0.0208,1.707985 -5.15829,9.129143 -9.35955,13.520109 l -4.81562,5.033059 z"
     id="path893"
     inkscape:connector-curvature="0"
     transform="scale(0.75000001)" />
  <path
     style="opacity:1;fill:#483e37;fill-opacity:1;fill-rule:evenodd;stroke:#a70000;stroke-width:1.81997323;stroke-miterlimit:4;stroke-dasharray:0, 20.01970576;stroke-dashoffset:0;stroke-opacity:1"
     d="m 153.28595,69.685407 -2.20138,-0.412982 3.23857,-1.83418 c 1.78122,-1.008799 4.98342,-2.720272 7.11601,-3.803274 l 3.87744,-1.969095 0.24308,2.708651 c 0.13369,1.489757 0.59631,3.134267 1.02803,3.654465 0.58667,0.706886 0.41488,0.945816 -0.68002,0.945816 -0.80575,0 -1.66477,0.199785 -1.90895,0.443967 -0.59787,0.597863 -7.9692,0.781329 -10.71278,0.266632 z"
     id="path895"
     inkscape:connector-curvature="0"
     transform="scale(0.75000001)" />
  <path
     style="opacity:1;fill:#241f1c;fill-opacity:1;fill-rule:evenodd;stroke:#a70000;stroke-width:1.81997323;stroke-miterlimit:4;stroke-dasharray:0, 20.01970576000000079;stroke-dashoffset:0;stroke-opacity:1"
     d="m 152.96473,69.796397 c -1.80006,-0.493227 -1.74782,-0.579997 1.49811,-2.488063 1.84976,-1.087357 4.96431,-2.715571 6.92122,-3.618253 1.9569,-0.902683 3.558,-1.903832 3.558,-2.224777 0,-0.320945 0.92696,-0.957908 2.0599,-1.415475 1.13294,-0.457567 4.08234,-1.990244 6.55422,-3.40595 2.47188,-1.415704 5.75835,-3.133351 7.30328,-3.816991 1.54492,-0.68364 2.80895,-1.56335 2.80895,-1.954911 0,-0.39156 0.31378,-0.518 0.69729,-0.280976 0.38352,0.237024 0.90902,0.08838 1.16779,-0.33032 0.25877,-0.4187 1.12475,-0.761272 1.92439,-0.761272 0.79965,0 1.4539,-0.30041 1.4539,-0.667579 0,-0.367167 3.11794,-2.709085 6.92875,-5.204261 3.81081,-2.495176 7.33586,-4.891359 7.83345,-5.324852 0.49759,-0.433493 1.42454,-0.788169 2.0599,-0.788169 0.63536,0 1.15519,-0.274532 1.15519,-0.610071 0,-0.943839 12.72992,-10.002859 13.63314,-9.701784 0.51168,0.170561 0.42632,0.658978 -0.23711,1.35665 -0.57015,0.599577 -2.03613,2.438437 -3.25774,4.086355 -1.2216,1.647919 -4.00246,5.107468 -6.17969,7.687888 -3.26238,3.866526 -3.96375,4.393484 -3.98791,2.996215 -0.0257,-1.485148 -0.15227,-1.413231 -1.02049,0.579776 -0.54514,1.251378 -2.72293,3.595893 -4.83953,5.210033 -2.1166,1.61414 -3.84836,3.20261 -3.84836,3.529934 0,0.327324 -0.44206,0.595134 -0.98234,0.595134 -0.54029,0 -1.72918,0.695785 -2.64198,1.546188 -0.9128,0.850404 -2.32466,1.596284 -3.13746,1.65751 -0.8128,0.06123 -1.47782,0.545201 -1.47782,1.075499 0,0.530299 -0.48153,0.964179 -1.07007,0.964179 -0.58855,0 -1.58773,0.51765 -2.22041,1.150333 -0.63269,0.632683 -1.32919,1.141839 -1.54779,1.131457 -0.97357,-0.04624 -7.14659,3.326019 -7.14659,3.904109 0,0.354199 -0.33707,0.435676 -0.74905,0.181059 -0.41198,-0.254618 -0.74905,-0.08608 -0.74905,0.374527 0,0.460607 -0.33708,0.629144 -0.74906,0.374526 -0.41198,-0.254617 -0.74905,-0.08608 -0.74905,0.374527 0,0.460608 -0.33708,0.629145 -0.74906,0.374527 -0.41198,-0.254617 -0.74905,-0.0498 -0.74905,0.455163 0,0.504956 -0.19719,0.72091 -0.43821,0.479897 -0.52539,-0.525398 -4.80451,0.874629 -4.8067,1.572641 -8.3e-4,0.268683 -2.2761,0.588581 -5.05611,0.710885 -2.78002,0.122304 -5.56019,0.33788 -6.17816,0.479057 -0.61797,0.141177 -1.96288,0.02671 -2.98869,-0.254365 z"
     id="path897"
     inkscape:connector-curvature="0"
     transform="scale(0.75000001)" />
  <path
     style="opacity:1;fill:#ffffff;fill-opacity:1;fill-rule:evenodd;stroke:#a70000;stroke-width:1.81997323;stroke-miterlimit:4;stroke-dasharray:0, 20.01970576;stroke-dashoffset:0;stroke-opacity:1"
     d="m 314.75282,172.0437 c 0,-0.1653 1.53205,-4.26452 3.40455,-9.1094 9.40572,-24.33618 10.30978,-42.6316 2.89918,-58.67087 -2.75759,-5.968451 -5.61118,-9.895409 -12.22912,-16.829055 -4.4162,-4.626881 -3.94072,-5.050441 2.19622,-1.956373 15.58905,7.859564 25.472,25.138978 25.43872,44.477248 -0.0277,16.08327 -4.08583,25.89282 -15.42216,37.27915 -4.45409,4.47372 -6.28739,5.87604 -6.28739,4.8093 z"
     id="path907"
     inkscape:connector-curvature="0"
     transform="scale(0.75000001)" />
  <path
     style="opacity:1;fill:url(#linearGradient933);fill-opacity:1;fill-rule:evenodd;stroke:#a70000;stroke-width:1.81997323;stroke-miterlimit:4;stroke-dasharray:0, 20.01970576000000079;stroke-dashoffset:0;stroke-opacity:1"
     d="m 236.8669,386.47855 c -4.86598,-2.15717 -22.196,-8.56534 -26.8247,-9.91904 l -3.96288,-1.15897 -0.83894,1.84127 c -0.46141,1.0127 -1.42846,1.84127 -2.149,1.84127 -2.20266,0 -15.82844,-7.23108 -19.6918,-10.45027 -4.24883,-3.54038 -4.97455,-3.70619 -4.97455,-1.13656 0,1.04289 -0.47293,2.07763 -1.05096,2.29944 -2.26457,0.869 -14.44992,-6.89082 -19.3665,-12.33289 -3.01642,-3.33882 -4.99533,-6.88561 -7.34358,-13.16185 -0.85197,-2.27711 -1.83551,-4.31724 -2.18563,-4.53362 -0.35012,-0.21639 -1.36701,0.78842 -2.25976,2.23292 -0.89275,1.4445 -1.90828,2.62635 -2.25674,2.62635 -1.09736,0 -4.54867,-8.16012 -5.65095,-13.36081 -1.19583,-5.64213 -1.37191,-18.86777 -0.35565,-26.71356 0.37355,-2.88386 0.42911,-5.497 0.12348,-5.80699 -0.30562,-0.30998 -1.69899,0.2799 -3.09636,1.31084 -1.39738,1.03096 -2.86223,1.87446 -3.25523,1.87446 -2.22605,0 2.19603,-22.88323 5.87575,-30.40571 2.37853,-4.86242 9.29769,-13.11201 14.60525,-17.41355 2.26589,-1.83641 4.24363,-3.66035 4.39498,-4.05321 0.17158,-0.44538 -2.43695,-0.51095 -6.92875,-0.17419 -3.96216,0.29705 -7.20393,0.28844 -7.20393,-0.0191 0,-0.30758 1.66247,-2.79146 3.69437,-5.51971 13.21803,-17.74798 31.9539,-27.01083 61.47331,-30.39186 11.65154,-1.33451 14.48825,-1.43155 13.89731,-0.47539 -0.23273,0.37655 -3.70763,2.43951 -7.72201,4.58434 -20.24141,10.81474 -43.9938,30.9258 -53.03005,44.90036 -6.39489,9.88968 -10.08326,24.84267 -10.06033,40.78544 0.0255,17.72964 3.83032,26.66026 16.88378,39.62932 10.09491,10.02963 22.23609,17.4448 45.13265,27.56455 10.10965,4.46822 18.65321,9.22193 25.98198,14.45656 4.1142,2.9386 3.34633,3.38585 -1.85456,1.08021 z"
     id="path925"
     inkscape:connector-curvature="0"
     transform="scale(0.75000001)" />
</svg>
